/* XPM */
static const char *close[] = {
/* columns rows colors chars-per-pixel */
"64 64 138 2 ",
"   c #966B5D",
".  c #987757",
"X  c #9E7759",
"o  c #967E5E",
"O  c #9D7B5C",
"+  c #A77E57",
"@  c #A97F57",
"#  c #A1725A",
"$  c #A97659",
"%  c #AA7959",
"&  c #9E7664",
"*  c #9B7C63",
"=  c #A37F61",
"-  c #97815E",
";  c #98825F",
":  c #AC8F4E",
">  c #AE8357",
",  c #B1855B",
"<  c #B4895D",
"1  c #AE9150",
"2  c #B19652",
"3  c #B39955",
"4  c #B99C54",
"5  c #B79E5C",
"6  c #B9A24D",
"7  c #BDA750",
"8  c #BEA953",
"9  c #BDA059",
"0  c #9E8262",
"q  c #9F9261",
"w  c #A68363",
"e  c #A88263",
"r  c #A58A62",
"t  c #A98963",
"y  c #A6866A",
"u  c #A98A6E",
"i  c #A29163",
"p  c #A79F64",
"a  c #B39365",
"s  c #BC9761",
"d  c #B79D64",
"f  c #BD9861",
"g  c #B1956C",
"h  c #B9906E",
"j  c #AA8C70",
"k  c #B79C71",
"l  c #A7A263",
"z  c #A8A565",
"x  c #ABAF66",
"c  c #BEA365",
"v  c #BFA964",
"b  c #ACB167",
"n  c #AEB468",
"m  c #AFB968",
"M  c #B0B768",
"N  c #B0BA69",
"B  c #BBA274",
"V  c #C0AB54",
"C  c #C3AE59",
"Z  c #C3B05C",
"A  c #CAB45E",
"S  c #C2976E",
"D  c #C3996E",
"F  c #C69C70",
"G  c #C89F73",
"H  c #C29B79",
"J  c #C4A562",
"K  c #C3A966",
"L  c #CAAD66",
"P  c #C5AB68",
"I  c #CBAB6C",
"U  c #CDB365",
"Y  c #CCB469",
"T  c #D2BC67",
"R  c #D3BD6A",
"E  c #CAA373",
"W  c #CDAA70",
"Q  c #C6A17E",
"!  c #CFA87B",
"~  c #D2AB7E",
"^  c #D4B771",
"/  c #D3BB73",
"(  c #B7C76C",
")  c #B7CB6B",
"_  c #B8CC6B",
"`  c #BED26F",
"'  c #BFD370",
"]  c #D4C26B",
"[  c #DCCB6D",
"{  c #D4C471",
"}  c #DAC373",
"|  c #DDCB73",
" . c #D7C879",
".. c #DACF7B",
"X. c #C0D470",
"o. c #DDD17E",
"O. c #E0CD74",
"+. c #E2D375",
"@. c #E7DB75",
"#. c #E4D77A",
"$. c #E9DF78",
"%. c #ECE479",
"&. c #D7B384",
"*. c #D8B486",
"=. c #DBB78A",
"-. c #DDBA8C",
";. c #D0C080",
":. c #DBCF8A",
">. c #DCD190",
",. c #DFD590",
"<. c #DBD190",
"1. c #E3DC8E",
"2. c #E0D691",
"3. c #E1D892",
"4. c #ECE380",
"5. c #EBE481",
"6. c #ECE481",
"7. c #EDE481",
"8. c #EDE581",
"9. c #EDE780",
"0. c #EDE582",
"q. c #EEE582",
"w. c #EDE682",
"e. c #EEE682",
"r. c #ECE685",
"t. c #EFE881",
"y. c #E8E18A",
"u. c #E8E28A",
"i. c #E8E192",
"p. c #ECE795",
"a. c #EEE993",
"s. c #F3EF90",
"d. c #F1ED95",
"f. c #F1EE96",
"g. c #F2EF96",
"h. c #F3F096",
"j. c #F4F197",
"k. c #F4F198",
/* pixels */
"X.X.X.X.X.X.X.X.X.X.X.X.X.X.X.X.X.X.X.X.X.X.X.X.X.X.X.X.X.X.X.X.X.X.X.X.X.X.X.X.X.X.X.X.X.X.X.X.X.X.X.X.X.X.X.X.X.X.X.X.X.X.X.X.",
"X.X.X.X.X.X.X.X.X.X.X.X.X.X.X.X.X.X.X.X.X.X.X.X.X.X.X.X.X.X.X.X.X.X.X.X.X.X.X.X.X.X.X.X.X.X.X.X.X.X.X.X.X.X.X.X.X.X.X.X.X.X.X.X.",
"X.X.X.X.X.X.X.X.X.X.X.X.X.X.X.X.X.X.X.X.X.X.X.X.X.X.X.X.X.X.X.X.X.X.X.X.X.X.X.X.X.X.X.X.X.X.X.X.X.X.X.X.X.X.X.X.X.X.X.X.X.X.X.X.",
"X.X.X.X.X.X.X.X.X.X.X.X.X.X.X.X.X.X.X.X.X.X.X.X.X.X.X.X.X.X.X.X.X.X.X.X.X.X.X.X.X.X.X.X.X.X.X.X.X.X.X.X.X.X.X.X.X.X.X.X.X.X.X.X.",
"X.X.X.X.X.X.X.X.X.X.X.X.X.X.X.X.X.X.X.X.X.X.X.X.X.X.X.X.X.X.X.X.X.X.X.X.X.X.X.X.X.X.X.X.X.X.X.X.X.X.X.X.X.X.X.X.X.X.X.X.X.X.X.X.",
"X.X.X.X.X.X.X.X.X.X.X.X.X.X.X.X.X.X.X.X.X.X.X.X.X.X.X.X.X.X.X.X.X.X.X.X.X.X.X.X.X.X.X.X.X.X.X.X.X.X.X.X.X.X.X.X.X.X.X.X.X.X.X.X.",
"X.X.X.X.X.X.X.X.X.X.X.X.X.X.X.X.X.X.X.X.X.X.X.X.X.X.X.X.X.X.X.X.X.X.X.X.X.X.X.X.X.X.X.X.X.X.X.X.X.X.X.X.X.X.X.X.X.X.X.X.X.X.X.X.",
"X.X.X.X.X.X.X.X.X.X.X.X.X.X.X.X.X.X.X.X.X.X.X.X.X.X.X.X.X.X.X.X.X.X.X.X.X.X.X.X.X.X.X.X.X.X.X.X.X.X.X.X.X.X.X.X.X.X.X.X.X.X.X.X.",
"X.X.X.X.X.X.X.X.X.X.X.X.X.X.X.X.X.X.X.X.X.X.X.X.X.X.X.X.X.X.X.X.X.X.X.X.X.X.X.X.X.X.X.X.X.X.X.X.X.X.X.X.X.X.X.X.X.X.X.X.X.X.X.X.",
"X.X.X.X.X.X.X.X.X.X.X.X.X.X.X.X.X.X.X.X.X.X.X.X.X.X.X.X.X.X.X.X.X.X.X.X.X.X.X.X.X.X.X.X.X.X.X.X.X.X.X.X.X.X.X.X.X.X.X.X.X.X.X.X.",
"X.X.X.X.X.X.X.X.X.X.X.X.X.X.X.X.X.X.X.X.X.X.X.X.X.X.X.X.X.X.X.X.X.X.X.X.X.X.X.X.X.X.X.X.X.X.X.X.X.X.X.X.X.X.X.X.X.X.X.X.X.X.X.X.",
"X.X.X.X.X.X.X.X.X.X.X.X.X.X.X.X.X.X.X.X.X.X.X.X.X.X.X.X.X.X.X.X.X.X.X.X.X.X.X.X.X.X.X.X.X.X.X.X.X.X.X.X.X.X.X.X.X.X.X.X.X.X.X.X.",
"X.X.X.X.X.X.X.X.X.X.X.X.X.X.X.X.X.X.X.X.X.X.X.X.X.X.X.X.X.X.X.X.X.X.X.X.X.X.X.X.X.X.X.X.X.X.X.X.X.X.X.X.X.X.X.X.X.X.X.X.X.X.X.X.",
"X.X.X.X.X.X.X.X.X.X.X.X.X.X.X.X.X.X.X.X.X.X.X.X.X.X.X.X.X.X.X.X.X.X.X.X.X.X.X.X.X.X.X.X.X.X.X.X.X.X.X.X.X.X.X.X.X.X.X.X.X.X.X.X.",
"X.X.X.X.X.X.X.X.X.X.X.X.X.X.X.X.X.X.X.X.X.X.X.X.X.X.X.X.X.X.X.X.X.X.X.X.X.X.X.X.X.X.X.X.X.X.X.X.X.X.X.X.X.X.X.X.X.X.X.X.X.X.X.X.",
"X.X.X.X.X.X.X.X.X.X.X.X.X.X.X.X.X.X.X.X.` ` ` ` X.X.X.X.X.X.X.X.X.X.X.X.X.X.X.X.' ` ` ` X.X.X.X.X.X.X.X.X.X.X.X.X.X.X.X.X.X.X.X.",
"X.X.X.X.X.X.X.X.X.X.X.X.X.X.X.X.X.X.X.` ` ` ` ` ` X.X.X.X.X.X.X.X.X.X.X.X.X.X.' ` ` ` ` ' X.X.X.X.X.X.X.X.X.X.X.X.X.X.X.X.X.X.X.",
"X.X.X.X.X.X.X.X.X.X.X.X.X.X.X.X.X.' ` _ N b n N _ ` ` ` ` ` ` ` ` ` ` ` ` ` ` _ N b b N _ ` ' X.X.X.X.X.X.X.X.X.X.X.X.X.X.X.X.X.",
"X.X.X.X.X.X.X.X.X.X.X.X.X.X.X.X.X.` _ N q o - i N _ ` ` ` ` ` ` ` ` ` ` ` ` _ N q o - i N _ ` X.X.X.X.X.X.X.X.X.X.X.X.X.X.X.X.X.",
"X.X.X.X.X.X.X.X.X.X.X.X.X.X.X.' ` _ m l r O O r l b b b b b b b b b b b b b b l r O O r l m _ ` ' X.X.X.X.X.X.X.X.X.X.X.X.X.X.X.",
"X.X.X.X.X.X.X.X.X.X.X.X.X.X.X.` _ m q r d K K d r o o o o o o o o o o o o o o r d K K d r q m _ ` X.X.X.X.X.X.X.X.X.X.X.X.X.X.X.",
"X.X.X.X.X.X.X.X.X.X.X.X.X.' ` _ N z r a Y [ [ Y t & & & & & & & & & & & & & & t U [ [ Y a r z m _ ` ' X.X.X.X.X.X.X.X.X.X.X.X.X.",
"X.X.X.X.X.X.X.X.X.X.X.X.X.` _ m q i P { +.@.@.| D h H Q Q Q Q Q Q Q Q Q Q H h D | @.@.+.{ P i q m _ ` X.X.X.X.X.X.X.X.X.X.X.X.X.",
"X.X.X.X.X.X.X.X.X.X.X.X.X.` _ b - w { %.%.$.+.} W G ~ *.=.-.-.-.-.-.-.=.*.~ G W } +.$.%.%.{ w o x _ ` X.X.X.X.X.X.X.X.X.X.X.X.X.",
"X.X.X.X.X.X.X.X.X.X.X.X.X.` _ x - r { %.%.+./ W D F G ! *.-.-.-.-.-.-.*.! G F D W / +.%.%.{ e * x _ ` X.X.X.X.X.X.X.X.X.X.X.X.X.",
"X.X.X.X.X.X.X.X.X.X.X.X.X.` _ x - r { %.%.+.W S D D D E ~ *.&.&.&.&.&.~ G D D D S W +.%.%.{ e * x _ ` X.X.X.X.X.X.X.X.X.X.X.X.X.",
"X.X.X.X.X.X.X.X.X.X.X.X.X.` _ x - r { %.%.O.W D D D D D E E E E E E E E F D D D D W +.%.%.{ r - x _ ` X.X.X.X.X.X.X.X.X.X.X.X.X.",
"X.X.X.X.X.X.X.X.X.X.X.X.X.` _ x - r { %.%.O.W S D D D D D D D D D D D D D D D D S W +.%.%.{ r - x _ ` X.X.X.X.X.X.X.X.X.X.X.X.X.",
"X.X.X.X.X.X.X.X.X.X.X.X.X.` _ x - r { %.%.O.W S S D D D D D D D D D D D D D D S S W O.%.%.{ r - x _ ` X.X.X.X.X.X.X.X.X.X.X.X.X.",
"X.X.X.X.X.X.X.X.X.X.X.X.X.` _ x - t  .t.%.+.^ I W W W W W W W W W W W W W W W W I ^ +.%.t. .t - x _ ` X.X.X.X.X.X.X.X.X.X.X.X.X.",
"X.X.X.X.X.X.X.X.X.X.X.X.X.` _ x * u :.s.7.@.+.O.O.O.O.O.O.| | | | O.O.O.O.O.O.O.O.+.@.7.s.:.u * x _ ` X.X.X.X.X.X.X.X.X.X.X.X.X.",
"X.X.X.X.X.X.X.X.X.X.X.X.X.` _ x * y ;.u.r.7.7.7.7.7.7.7.7.7.5.5.7.7.7.7.7.7.7.7.7.7.7.r.u.;.y * x _ ` X.X.X.X.X.X.X.X.X.X.X.X.X.",
"X.X.X.X.X.X.X.X.X.X.X.X.X.` _ b 0 O 5 ] u.k.h.h.h.h.h.h.j.h.f.f.f.f.h.h.h.h.h.h.h.j.k.u.] 5 O 0 x _ ` X.X.X.X.X.X.X.X.X.X.X.X.X.",
"X.X.X.X.X.X.X.X.X.X.X.X.X.` _ b - . : C ..1.,.>.>.>.>.>.>.3.p.f.a.i.2.>.>.>.>.>.>.,.1...C : . - b _ ` X.X.X.X.X.X.X.X.X.X.X.X.X.",
"X.X.X.X.X.X.X.X.X.X.X.X.X.` _ b - O 2 8 Z v g j j j j j u B o.7.#./ k u j j j j j g v Z 8 1 O - b _ ` X.X.X.X.X.X.X.X.X.X.X.X.X.",
"X.X.X.X.X.X.X.X.X.X.X.X.X.` _ b - O 3 8 6 : X             t ] @.[ L e             X 1 6 7 3 O - b _ ` X.X.X.X.X.X.X.X.X.X.X.X.X.",
"X.X.X.X.X.X.X.X.X.X.X.X.X.` ) b - O 3 8 7 2 + # # # # # # < Y [ [ U , # # # # # # @ 3 7 8 3 O - b _ ` X.X.X.X.X.X.X.X.X.X.X.X.X.",
"X.X.X.X.X.X.X.X.X.X.X.X.X.` _ b - O 5 C V 4 > $ $ $ $ $ $ , J U U J , $ $ $ $ $ $ > 4 V C 5 O - b _ ` X.X.X.X.X.X.X.X.X.X.X.X.X.",
"X.X.X.X.X.X.X.X.X.X.X.X.X.` _ x - O c U C 4 > $ $ $ $ $ $ % , < < , % $ $ $ $ $ $ > 4 C U c O - b _ ` X.X.X.X.X.X.X.X.X.X.X.X.X.",
"X.X.X.X.X.X.X.X.X.X.X.X.X.` _ x - = P T A 9 , $ $ $ $ $ $ $ $ $ $ $ $ $ $ $ $ $ $ , 9 A T P w - x _ ` X.X.X.X.X.X.X.X.X.X.X.X.X.",
"X.X.X.X.X.X.X.X.X.X.X.X.X.` ) x * = P ] T J , $ $ $ $ $ $ $ $ $ $ $ $ $ $ $ $ $ $ , J T ] P = * x ) ` X.X.X.X.X.X.X.X.X.X.X.X.X.",
"X.X.X.X.X.X.X.X.X.X.X.X.X.` _ m i r c Y R U s < < < < < < < < < < < < < < < < < < f U R Y c r i M _ ` X.X.X.X.X.X.X.X.X.X.X.X.X.",
"X.X.X.X.X.X.X.X.X.X.X.X.X.X.` _ n p r a Y ] U L L L L L L L L L L L L L L L L L U T ] Y a r p n ( ` ' X.X.X.X.X.X.X.X.X.X.X.X.X.",
"X.X.X.X.X.X.X.X.X.X.X.X.X.X.X.` ) n i r c L P P P P P P P P P P P P P P P P P P L U L c r i n ) ` X.X.X.X.X.X.X.X.X.X.X.X.X.X.X.",
"X.X.X.X.X.X.X.X.X.X.X.X.X.X.X.' ` ( n p t e e e e e e e e e e e e e e e e e e e e e e t p n ( ` ' X.X.X.X.X.X.X.X.X.X.X.X.X.X.X.",
"X.X.X.X.X.X.X.X.X.X.X.X.X.X.X.X.X.` ) n i 0 0 0 0 0 0 0 0 0 0 0 0 0 0 0 0 0 0 0 0 0 0 i n ) ` X.X.X.X.X.X.X.X.X.X.X.X.X.X.X.X.X.",
"X.X.X.X.X.X.X.X.X.X.X.X.X.X.X.X.X.' ` ( M x x b b b b b b b b b b b x x b b b b b x x M ( ` ' X.X.X.X.X.X.X.X.X.X.X.X.X.X.X.X.X.",
"X.X.X.X.X.X.X.X.X.X.X.X.X.X.X.X.' ' X.` _ ) ) _ _ _ _ ) _ _ _ _ _ _ ) ) _ _ _ _ _ _ ) _ ` X.X.X.X.X.X.X.X.X.X.X.X.X.X.X.X.X.X.X.",
"X.X.X.X.X.X.X.X.X.X.X.X.X.X.X.X.X.X.' ' ` ` ` ` ` ` ` ` ` ` ` ` ` ` ` ` ` ` ` ` ` ` ` ` ' X.X.X.X.X.X.X.X.X.X.X.X.X.X.X.X.X.X.X.",
"X.X.X.X.X.X.X.X.X.X.X.X.X.X.X.X.X.X.' ' X.X.X.X.X.X.X.X.X.X.X.X.X.X.X.X.X.X.X.X.X.X.X.X.X.X.X.X.X.X.X.X.X.X.X.X.X.X.X.X.X.X.X.X.",
"X.X.X.X.X.X.X.X.X.X.X.X.X.X.X.X.X.X.X.X.X.X.X.X.X.X.X.X.X.X.X.X.X.X.X.X.X.X.X.X.X.X.X.X.X.X.X.X.X.X.X.X.X.X.X.X.X.X.X.X.X.X.X.X.",
"X.X.X.X.X.X.X.X.X.X.X.X.X.X.X.X.X.X.X.X.X.X.X.X.X.X.X.X.X.X.X.X.X.X.X.X.X.X.X.X.X.X.X.X.X.X.X.X.X.X.X.X.X.X.X.X.X.X.X.X.X.X.X.X.",
"X.X.X.X.X.X.X.X.X.X.X.X.X.X.X.X.X.X.X.X.X.X.X.X.X.X.X.X.X.X.X.X.X.X.X.X.X.X.X.X.X.X.X.X.X.X.X.X.X.X.X.X.X.X.X.X.X.X.X.X.X.X.X.X.",
"X.X.X.X.X.X.X.X.X.X.X.X.X.X.X.X.X.X.X.X.X.X.X.X.X.X.X.X.X.X.X.X.X.X.X.X.X.X.X.X.X.X.X.X.X.X.X.X.X.X.X.X.X.X.X.X.X.X.X.X.X.X.X.X.",
"X.X.X.X.X.X.X.X.X.X.X.X.X.X.X.X.X.X.X.X.X.X.X.X.X.X.X.X.X.X.X.X.X.X.X.X.X.X.X.X.X.X.X.X.X.X.X.X.X.X.X.X.X.X.X.X.X.X.X.X.X.X.X.X.",
"X.X.X.X.X.X.X.X.X.X.X.X.X.X.X.X.X.X.X.X.X.X.X.X.X.X.X.X.X.X.X.X.X.X.X.X.X.X.X.X.X.X.X.X.X.X.X.X.X.X.X.X.X.X.X.X.X.X.X.X.X.X.X.X.",
"X.X.X.X.X.X.X.X.X.X.X.X.X.X.X.X.X.X.X.X.X.X.X.X.X.X.X.X.X.X.X.X.X.X.X.X.X.X.X.X.X.X.X.X.X.X.X.X.X.X.X.X.X.X.X.X.X.X.X.X.X.X.X.X.",
"X.X.X.X.X.X.X.X.X.X.X.X.X.X.X.X.X.X.X.X.X.X.X.X.X.X.X.X.X.X.X.X.X.X.X.X.X.X.X.X.X.X.X.X.X.X.X.X.X.X.X.X.X.X.X.X.X.X.X.X.X.X.X.X.",
"X.X.X.X.X.X.X.X.X.X.X.X.X.X.X.X.X.X.X.X.X.X.X.X.X.X.X.X.X.X.X.X.X.X.X.X.X.X.X.X.X.X.X.X.X.X.X.X.X.X.X.X.X.X.X.X.X.X.X.X.X.X.X.X.",
"X.X.X.X.X.X.X.X.X.X.X.X.X.X.X.X.X.X.X.X.X.X.X.X.X.X.X.X.X.X.X.X.X.X.X.X.X.X.X.X.X.X.X.X.X.X.X.X.X.X.X.X.X.X.X.X.X.X.X.X.X.X.X.X.",
"X.X.X.X.X.X.X.X.X.X.X.X.X.X.X.X.X.X.X.X.X.X.X.X.X.X.X.X.X.X.X.X.X.X.X.X.X.X.X.X.X.X.X.X.X.X.X.X.X.X.X.X.X.X.X.X.X.X.X.X.X.X.X.X.",
"X.X.X.X.X.X.X.X.X.X.X.X.X.X.X.X.X.X.X.X.X.X.X.X.X.X.X.X.X.X.X.X.X.X.X.X.X.X.X.X.X.X.X.X.X.X.X.X.X.X.X.X.X.X.X.X.X.X.X.X.X.X.X.X.",
"X.X.X.X.X.X.X.X.X.X.X.X.X.X.X.X.X.X.X.X.X.X.X.X.X.X.X.X.X.X.X.X.X.X.X.X.X.X.X.X.X.X.X.X.X.X.X.X.X.X.X.X.X.X.X.X.X.X.X.X.X.X.X.X.",
"X.X.X.X.X.X.X.X.X.X.X.X.X.X.X.X.X.X.X.X.X.X.X.X.X.X.X.X.X.X.X.X.X.X.X.X.X.X.X.X.X.X.X.X.X.X.X.X.X.X.X.X.X.X.X.X.X.X.X.X.X.X.X.X."
};
