/* XPM */
static char *close[] = {
/* columns rows colors chars-per-pixel */
"32 32 30 1 ",
"  c #8E675B",
". c #8F6A5B",
"X c #916F5C",
"o c #A77759",
"O c #A97759",
"+ c #AA7859",
"@ c #946C60",
"# c #986E60",
"$ c #9A7061",
"% c #B69D4C",
"& c #BDA752",
"* c #BFA955",
"= c #ADBE66",
"- c #C0A955",
"; c #C49A6E",
": c #D2BC6A",
"> c #B4C669",
", c #B5C86B",
"< c #B9CC6C",
"1 c #BFD370",
"2 c #D7C36A",
"3 c #C0D470",
"4 c #E7DD77",
"5 c #E9DD77",
"6 c #E6D978",
"7 c #E9E177",
"8 c #EAE178",
"9 c #D9B589",
"0 c #DDBA8B",
"q c #F3F19E",
/* pixels */
"33333333333333333333333333333333",
"33333333333333333333333333333333",
"33333333333333333333333333333333",
"33333333333333333333333333333333",
"33333333333333333333333333333333",
"33333333333333333333333333333333",
"33333333333333333333333333333333",
"33333333333333333333333333333333",
"3333333331<<13333331<<1333333333",
"333333331>.X><<<<<<>.X>133333333",
"33333331>X::.      .::X>13333333",
"3333333,X687;999999;886X,3333333",
"3333333>X88;;;0000;;;88@>3333333",
"3333333>X78;;;;;;;;;;88X>3333333",
"3333333>X88;;;;;;;;;;88X>3333333",
"3333333>@q855554555558q@>3333333",
"3333333>X%qqqqqqqqqqqq%X>3333333",
"3333333>X&%@@@@82@@@@%&X>3333333",
"3333333>X*&oOo+22+oo+&*X>3333333",
"3333333>X:*++++++++++-:X>3333333",
"3333333>@2:++++OO++++:2#>3333333",
"33333333=$2:::::::::22$=13333333",
"333333313=$$$$$$$$$$$$=133333333",
"3333333311>>>>>>>>>>>>1333333333",
"33333333313333333333333333333333",
"33333333333333333333333333333333",
"33333333333333333333333333333333",
"33333333333333333333333333333333",
"33333333333333333333333333333333",
"33333333333333333333333333333333",
"33333333333333333333333333333333",
"33333333333333333333333333333333"
};
