/* XPM */
static char *item[] = {
/* columns rows colors chars-per-pixel */
"32 32 11 1 ",
"  c #67300B",
". c #543621",
"X c #3B722A",
"o c #E77225",
"O c #8D4F62",
"+ c #44892E",
"@ c #61AE49",
"# c #62D040",
"$ c #EEBA77",
"% c #C0D470",
"& c #F2CF8C",
/* pixels */
"%%%%%%%%%%%%%%%%%%%%%%%%%%%%%%%%",
"%%%%%%%%%%%%%%%%%%%%%%%%%%%%%%%%",
"%%%%%%%%%%%%%%%%%%%%%%%%%%%%%%%%",
"%%%%%%%%%%%%%%%%%%%%%%%%%%%%%%%%",
"%%%%%%%%%%%%%%%%%%%%%%%%%%%%%%%%",
"%%%%%%%%%%%%%%%%%%%%%%%%%%%%%%%%",
"%%%%%%%%%%%%%%%%%%%%%%%%%%%%%%%%",
"%%%%%%%%%%%%%%%%%%%%%%%%%%%%%%%%",
"%%%%%%%%%%%%%%%%%%%%%%%%%%%%%%%%",
"%%%%%%%%%%%%%%%%%%%%%%%%%%%%%%%%",
"%%%%%%%%%%%%%%XXX%%%%%%%%%%%%%%%",
"%%%%%%%%%%%%%X###X%%%%%%%%%%%%%%",
"%%%%%%%%%%%%%X+++X%%%%%%%%%%%%%%",
"%%%%%%%%%%%%%%XX+X%%%%%%%%%%%%%%",
"%%%%%%%%%%%%%OOO+XX@@%%%%%%%%%%%",
"%%%%%%%%%%%%O&$o.+++#X%%%%%%%%%%",
"%%%%%%%%%%%O&$ooo.X++X%%%%%%%%%%",
"%%%%%%%%%%%O$ooo .X++X%%%%%%%%%%",
"%%%%%%%%%%O$ooo  .%XX%%%%%%%%%%%",
"%%%%%%%%%%Oooo  .%%%%%%%%%%%%%%%",
"%%%%%%%%%Oooo ..%%%%%%%%%%%%%%%%",
"%%%%%%%%%Oo ..%%%%%%%%%%%%%%%%%%",
"%%%%%%%%%...%%%%%%%%%%%%%%%%%%%%",
"%%%%%%%%%%%%%%%%%%%%%%%%%%%%%%%%",
"%%%%%%%%%%%%%%%%%%%%%%%%%%%%%%%%",
"%%%%%%%%%%%%%%%%%%%%%%%%%%%%%%%%",
"%%%%%%%%%%%%%%%%%%%%%%%%%%%%%%%%",
"%%%%%%%%%%%%%%%%%%%%%%%%%%%%%%%%",
"%%%%%%%%%%%%%%%%%%%%%%%%%%%%%%%%",
"%%%%%%%%%%%%%%%%%%%%%%%%%%%%%%%%",
"%%%%%%%%%%%%%%%%%%%%%%%%%%%%%%%%",
"%%%%%%%%%%%%%%%%%%%%%%%%%%%%%%%%"
};
