/* XPM */
static const char *open[] = {
/* columns rows colors chars-per-pixel */
"64 64 148 2 ",
"   c #664559",
".  c #68475A",
"X  c #6A4A5A",
"o  c #7A5B55",
"O  c #7A5B5C",
"+  c #7E6154",
"@  c #93774D",
"#  c #95784F",
"$  c #806254",
"%  c #8C6F50",
"&  c #82645D",
"*  c #986F57",
"=  c #96675D",
"-  c #97695D",
";  c #8C7050",
":  c #997156",
">  c #907559",
",  c #9C755A",
"<  c #977E5F",
"1  c #9D7B5E",
"2  c #A17C55",
"3  c #A5775B",
"4  c #A4795C",
"5  c #AC7C5A",
"6  c #866A61",
"7  c #886E6A",
"8  c #927961",
"9  c #9A7E61",
"0  c #A37D61",
"q  c #9E8347",
"w  c #9F8448",
"e  c #9F845F",
"r  c #A58B47",
"t  c #A88847",
"y  c #A08648",
"u  c #A78C49",
"i  c #AA8B49",
"p  c #AE9445",
"a  c #B59C46",
"s  c #B29749",
"d  c #B69D4A",
"f  c #AE805A",
"g  c #B68E5E",
"h  c #B88F5E",
"j  c #B39654",
"k  c #B49852",
"l  c #B7905E",
"z  c #B8905F",
"x  c #B69B5B",
"c  c #BA9E5C",
"v  c #BBA34E",
"b  c #B7A155",
"n  c #9D8164",
"m  c #9D8E61",
"M  c #9E9061",
"N  c #A18660",
"B  c #A88164",
"V  c #A58B64",
"C  c #AA8D64",
"Z  c #AA866B",
"A  c #AE8B69",
"S  c #A29264",
"D  c #A69F64",
"F  c #AD956F",
"G  c #B79D64",
"H  c #BC9C63",
"J  c #B99B6A",
"K  c #B09870",
"L  c #A7AA64",
"P  c #AAAD66",
"I  c #A9A368",
"U  c #ADAF68",
"Y  c #B7A065",
"T  c #BCA367",
"R  c #BEAB65",
"E  c #BEA568",
"W  c #ADB367",
"Q  c #ADB268",
"!  c #B0B769",
"~  c #B1B969",
"^  c #BFA373",
"/  c #C3AD57",
"(  c #CBB75D",
")  c #C09D62",
"_  c #C0A564",
"`  c #C3AA66",
"'  c #CAAF66",
"]  c #C4AF6C",
"[  c #C8AF68",
"{  c #CBB266",
"}  c #CCB960",
"|  c #C5B56F",
" . c #CAB268",
".. c #CCBB6C",
"X. c #D2BE67",
"o. c #D2BE6B",
"O. c #C5B570",
"+. c #C7B977",
"@. c #CDBE71",
"#. c #C6B87B",
"$. c #B6C66B",
"%. c #B6C96A",
"&. c #B9CC6C",
"*. c #BDD26F",
"=. c #BFD370",
"-. c #D3C167",
";. c #D6C46B",
":. c #D8C76B",
">. c #DFD16F",
",. c #D5C171",
"<. c #DAC977",
"1. c #D2C17F",
"2. c #C0D470",
"3. c #DFD271",
"4. c #E0D16F",
"5. c #E1D371",
"6. c #E6DC77",
"7. c #E9DE77",
"8. c #E5D978",
"9. c #E8DE7F",
"0. c #EAE077",
"q. c #E9E079",
"w. c #E9E178",
"e. c #EAE179",
"r. c #EAE079",
"t. c #E9E07A",
"y. c #EAE17A",
"u. c #EAE27A",
"i. c #EBE27A",
"p. c #EDE47A",
"a. c #EEE67C",
"s. c #EEE77D",
"d. c #EFE87C",
"f. c #EFE87D",
"g. c #EFE87F",
"h. c #CBBF86",
"j. c #D0BF87",
"k. c #CDC38F",
"l. c #CDC390",
"z. c #E6DF89",
"x. c #E4D98C",
"c. c #EBE481",
"v. c #EFE887",
"b. c #EAE389",
"n. c #F0E984",
"m. c #F0EA86",
"M. c #EEEA90",
"N. c #F1EE99",
/* pixels */
"2.2.2.2.2.2.2.2.2.2.2.2.2.2.2.2.2.2.2.2.2.2.2.2.2.2.2.2.2.2.2.2.2.2.2.2.2.2.2.2.2.2.2.2.2.2.2.2.2.2.2.2.2.2.2.2.2.2.2.2.2.2.2.2.",
"2.2.2.2.2.2.2.2.2.2.2.2.2.2.2.2.2.2.2.2.2.2.2.2.2.2.2.2.2.2.2.2.2.2.2.2.2.2.2.2.2.2.2.2.2.2.2.2.2.2.2.2.2.2.2.2.2.2.2.2.2.2.2.2.",
"2.2.2.2.2.2.2.2.2.2.2.2.2.2.2.2.2.2.2.2.2.2.2.2.2.2.2.2.2.2.2.2.2.2.2.2.2.2.2.2.2.2.2.2.2.2.2.2.2.2.2.2.2.2.2.2.2.2.2.2.2.2.2.2.",
"2.2.2.2.2.2.2.2.2.2.2.2.2.2.2.2.2.2.2.2.2.2.2.2.2.2.2.2.2.2.2.2.2.2.2.2.2.2.2.2.2.2.2.2.2.2.2.2.2.2.2.2.2.2.2.2.2.2.2.2.2.2.2.2.",
"2.2.2.2.2.2.2.2.2.2.2.2.2.2.2.2.2.2.2.2.2.2.2.2.2.2.2.2.2.2.2.2.2.2.2.2.2.2.2.2.2.2.2.2.2.2.2.2.2.2.2.2.2.2.2.2.2.2.2.2.2.2.2.2.",
"2.2.2.2.2.2.2.2.2.2.2.2.2.2.2.2.2.2.2.2.2.2.2.2.2.2.2.2.2.2.2.2.2.2.2.2.2.2.2.2.2.2.2.2.2.2.2.2.2.2.2.2.2.2.2.2.2.2.2.2.2.2.2.2.",
"2.2.2.2.2.2.2.2.2.2.2.2.2.2.2.2.2.2.2.2.2.2.2.2.2.2.2.2.2.2.2.2.2.2.2.2.2.2.2.2.2.2.2.2.2.2.2.2.2.2.2.2.2.2.2.2.2.2.2.2.2.2.2.2.",
"2.2.2.2.2.2.2.2.2.2.2.2.2.2.2.2.2.2.2.2.2.2.2.2.2.2.2.2.2.2.2.2.2.2.2.2.2.2.2.2.2.2.2.2.2.2.2.2.2.2.2.2.2.2.2.2.2.2.2.2.2.2.2.2.",
"2.2.2.2.2.2.2.2.2.2.2.2.2.2.2.2.2.2.2.2.2.2.2.2.2.2.2.2.2.2.2.2.2.2.2.2.2.2.2.2.2.2.2.2.2.2.2.2.2.2.2.2.2.2.2.2.2.2.2.2.2.2.2.2.",
"2.2.2.2.2.2.2.2.2.2.2.2.2.2.2.2.2.2.2.2.2.2.2.2.2.2.2.2.2.2.2.2.2.2.2.2.2.2.2.2.2.2.2.2.2.2.2.2.2.2.2.2.2.2.2.2.2.2.2.2.2.2.2.2.",
"2.2.2.2.2.2.2.2.2.2.2.2.2.2.2.2.2.2.2.2.2.2.2.2.2.2.2.2.2.2.2.2.2.2.2.2.2.2.2.2.2.2.2.2.2.2.2.2.2.2.2.2.2.2.2.2.2.2.2.2.2.2.2.2.",
"2.2.2.2.2.2.2.2.2.2.2.2.2.2.2.2.2.2.2.2.2.2.2.2.2.2.2.2.2.2.2.2.2.2.2.2.2.2.2.2.2.2.2.2.2.2.2.2.2.2.2.2.2.2.2.2.2.2.2.2.2.2.2.2.",
"2.2.2.2.2.2.2.2.2.2.2.2.2.2.2.2.2.2.2.2.2.2.2.2.=.=.2.2.2.2.2.2.2.2.2.2.2.2.2.2.2.2.2.2.=.=.2.2.2.2.2.2.2.2.2.2.2.2.2.2.2.2.2.2.",
"2.2.2.2.2.2.2.2.2.2.2.2.2.2.2.2.2.2.2.=.*.*.*.*.=.2.2.2.2.2.2.2.2.2.2.2.2.2.2.=.*.*.*.*.=.=.2.2.2.2.2.2.2.2.2.2.2.2.2.2.2.2.2.2.",
"2.2.2.2.2.2.2.2.2.2.2.2.2.2.2.2.2.2.2.*.&.%.%.&.*.2.2.2.2.2.2.2.2.2.2.2.2.2.2.*.&.%.%.&.*.2.=.=.2.2.2.2.2.2.2.2.2.2.2.2.2.2.2.2.",
"2.2.2.2.2.2.2.2.2.2.2.2.2.2.2.2.2.=.*.$.W P P W $.*.*.*.*.*.*.*.*.*.*.*.*.*.*.$.W P P W $.*.=.=.2.2.2.2.2.2.2.2.2.2.2.2.2.2.2.2.",
"2.2.2.2.2.2.2.2.2.2.2.2.2.2.2.2.2.*.%.W S n n S W $.%.%.%.%.%.%.%.%.%.%.%.%.$.W S n n S W %.*.2.2.=.2.2.2.2.2.2.2.2.2.2.2.2.2.2.",
"2.2.2.2.2.2.2.2.2.2.2.2.2.2.2.=.*.$.W D C B B V D L P P P P P P P P P P P P L D V B B V D W $.*.=.2.2.2.2.2.2.2.2.2.2.2.2.2.2.2.",
"2.2.2.2.2.2.2.2.2.2.2.2.2.2.2.*.%.W S C E  .[ T V 9 n n n n n n n n n n n n 9 V E  . .T V V W %.*.2.2.2.2.2.2.2.2.2.2.2.2.2.2.2.",
"2.2.2.2.2.2.2.2.2.2.2.2.2.=.*.$.W I K ^ ,.4.>.o.J A A A A A A A A A A A A A A J o.5.>.o.J C D W &.*.2.2.2.2.2.2.2.2.2.2.2.2.2.2.",
"2.2.2.2.2.2.2.2.2.2.2.2.2.*.&.W S F j.x.9.0.0.8.<.<.<.<.<.<.<.<.<.<.<.<.<.<.<.<.8.i.i.8.<.] C S ~ &.*.2.2.2.2.2.2.2.2.2.2.2.2.2.",
"2.2.2.2.2.2.2.2.2.2.2.2.2.*.%.P 9 Z 1.b.v.m.m.m.f.f.f.f.f.f.f.a.i.i.a.f.f.f.f.f.a.a.a.i.3. .0 9 U &.*.2.2.2.2.2.2.2.2.2.2.2.2.2.",
"2.2.2.2.2.2.2.2.2.2.2.2.2.*.&.U 9 1 x ..z.N.N.M.c.i.i.i.i.i.p.7.5.3.6.i.i.i.i.i.i.i.i.>.( j , 9 Q &.*.2.2.2.2.2.2.2.2.2.2.2.2.2.",
"2.2.2.2.2.2.2.2.2.2.2.2.2.*.&.Q 9 : t b #.l.k.h.+.| | O.O.@.3.5.:.o.| O.O.O.O.O.O.O.O.R d t : 9 Q &.*.2.2.2.2.2.2.2.2.2.2.2.2.2.",
"2.2.2.2.2.2.2.2.2.2.2.2.2.*.&.Q 9 : t u 8 7 7 7 6 6 6 6 6 n  .:.;.R 9 6 6 6 6 6 6 6 6 > u t : 9 Q &.*.2.2.2.2.2.2.2.2.2.2.2.2.2.",
"2.2.2.2.2.2.2.2.2.2.2.2.2.*.&.Q 9 : t q o                 O N Y Y N O                 o w i : 9 Q &.*.2.2.2.2.2.2.2.2.2.2.2.2.2.",
"2.2.2.2.2.2.2.2.2.2.2.2.2.*.&.Q 9 : i q o                 X O & & O X                 o y i : 9 Q &.*.2.2.2.2.2.2.2.2.2.2.2.2.2.",
"2.2.2.2.2.2.2.2.2.2.2.2.2.*.&.U 9 : i y o . . . . . . . . .       . . . . . . . . . . o y i : 9 Q &.*.2.2.2.2.2.2.2.2.2.2.2.2.2.",
"2.2.2.2.2.2.2.2.2.2.2.2.2.*.%.P 9 : i y + . . . . . . . . .     . . . . . . . . . . . o y i : 9 Q &.*.2.2.2.2.2.2.2.2.2.2.2.2.2.",
"2.2.2.2.2.2.2.2.2.2.2.2.2.*.%.P 9 : i u ; o X . . . . . . . . . . . . . . . . . . X o % r t : 9 Q &.*.2.2.2.2.2.2.2.2.2.2.2.2.2.",
"2.2.2.2.2.2.2.2.2.2.2.2.2.*.%.P 9 : i p r @ o . . . X X X X X X X X X X X X X X X o # i p t : 9 Q &.*.2.2.2.2.2.2.2.2.2.2.2.2.2.",
"2.2.2.2.2.2.2.2.2.2.2.2.2.*.%.P 9 , i a a r ; o o o + $ $ $ $ $ $ $ $ $ $ $ $ + + % t a d i : 9 Q &.*.2.2.2.2.2.2.2.2.2.2.2.2.2.",
"2.2.2.2.2.2.2.2.2.2.2.2.2.*.%.P 9 , j v a p r y w w y y y y y y y y y y y y y y y r p d v j , 9 Q &.*.2.2.2.2.2.2.2.2.2.2.2.2.2.",
"2.2.2.2.2.2.2.2.2.2.2.2.2.*.%.P < 1 c / v s i t t t t t t t t t t t t t t t t t t i s v / c 1 9 U &.*.2.2.2.2.2.2.2.2.2.2.2.2.2.",
"2.2.2.2.2.2.2.2.2.2.2.2.2.*.%.P < 4 ` } / j 2 * * : : : : : : : : : : : * * * * * 2 k / } _ 4 9 U &.*.2.2.2.2.2.2.2.2.2.2.2.2.2.",
"2.2.2.2.2.2.2.2.2.2.2.2.2.*.%.P < 0 [ -.} c 4 = - - - - - - - - - - - - - - - = = 4 c ( X.` 0 9 U &.*.2.2.2.2.2.2.2.2.2.2.2.2.2.",
"2.2.2.2.2.2.2.2.2.2.2.2.2.*.%.P < 0 [ ;.-.` g 3 3 3 3 3 3 3 3 3 3 3 3 3 3 3 3 3 3 g ` -.;.` 0 9 W &.*.2.2.2.2.2.2.2.2.2.2.2.2.2.",
"2.2.2.2.2.2.2.2.2.2.2.2.2.*.%.P 9 0 [ ;.;.{ l 5 5 f f f f f f 5 5 5 5 5 5 5 5 5 5 l { ;.;.` 0 9 W &.*.2.2.2.2.2.2.2.2.2.2.2.2.2.",
"2.2.2.2.2.2.2.2.2.2.2.2.2.*.%.P 9 0 [ ;.;.{ g 5 5 f 5 f f f f 5 5 5 5 5 5 5 5 5 5 l { ;.;.` 0 9 W &.*.2.2.2.2.2.2.2.2.2.2.2.2.2.",
"2.2.2.2.2.2.2.2.2.2.2.2.2.*.%.P 9 0 [ ;.;.' g 5 5 5 5 5 5 5 5 5 5 5 5 5 3 3 3 5 5 g { ;.;.` 4 < U &.*.2.2.2.2.2.2.2.2.2.2.2.2.2.",
"2.2.2.2.2.2.2.2.2.2.2.2.2.*.&.U 9 0 ` ;.;.{ g 5 5 5 5 5 5 5 5 5 5 5 5 5 5 5 5 5 5 g { ;.;.` 1 < P &.*.2.2.2.2.2.2.2.2.2.2.2.2.2.",
"2.2.2.2.2.2.2.2.2.2.2.2.2.*.&.! S N G  .o. .H g g l l l l l l l g l l l l l l g h ) ..o.{ G f m W &.*.2.2.2.2.2.2.2.2.2.2.2.2.2.",
"2.2.2.2.2.2.2.2.2.2.2.2.2.2.*.&.W D N C  .o. .{ { { { { { { { { { { { { { { { { { { o.{ C e D W &.*.2.2.2.2.2.2.2.2.2.2.2.2.2.2.",
"2.2.2.2.2.2.2.2.2.2.2.2.2.2.2.*.&.W m N G ` ` ` ` ` ` ` ` ` ` ` ` ` ` ` ` ` ` ` ` ` ` G n m W &.*.2.2.2.2.2.2.2.2.2.2.2.2.2.2.2.",
"2.2.2.2.2.2.2.2.2.2.2.2.2.2.2.=.*.&.W D f 1 1 1 1 1 1 1 1 1 1 1 1 1 1 1 1 1 1 1 1 1 1 N D W %.*.=.2.2.2.2.2.2.2.2.2.2.2.2.2.2.2.",
"2.2.2.2.2.2.2.2.2.2.2.2.2.2.2.2.=.*.&.W M < < < < < < < < < < < < < < < < < < < < < < M W &.*.=.2.2.2.2.2.2.2.2.2.2.2.2.2.2.2.2.",
"2.2.2.2.2.2.2.2.2.2.2.2.2.2.2.2.2.=.*.&.~ W W Q Q Q Q Q Q Q Q Q Q Q Q Q W W Q W Q W Q ~ &.*.=.2.2.2.2.2.2.2.2.2.2.2.2.2.2.2.2.2.",
"2.2.2.2.2.2.2.2.2.2.2.2.2.2.2.2.2.2.=.*.*.*.*.*.*.*.*.*.*.*.*.*.*.*.*.*.*.*.*.*.*.*.*.*.*.2.2.2.2.2.2.2.2.2.2.2.2.2.2.2.2.2.2.2.",
"2.2.2.2.2.2.2.2.2.2.2.2.2.2.2.2.2.2.2.2.*.*.*.*.*.*.*.*.*.*.*.*.*.*.*.*.*.*.*.*.*.*.*.=.2.2.2.2.2.2.2.2.2.2.2.2.2.2.2.2.2.2.2.2.",
"2.2.2.2.2.2.2.2.2.2.2.2.2.2.2.2.2.2.2.2.2.2.2.2.2.2.2.2.2.2.2.2.2.2.2.2.2.2.2.2.2.2.2.2.2.2.2.2.2.2.2.2.2.2.2.2.2.2.2.2.2.2.2.2.",
"2.2.2.2.2.2.2.2.2.2.2.2.2.2.2.2.2.2.2.2.2.2.2.2.2.2.2.2.2.2.2.2.2.2.2.2.2.2.2.2.2.2.2.2.2.2.2.2.2.2.2.2.2.2.2.2.2.2.2.2.2.2.2.2.",
"2.2.2.2.2.2.2.2.2.2.2.2.2.2.2.2.2.2.2.2.2.2.2.2.2.2.2.2.2.2.2.2.2.2.2.2.2.2.2.2.2.2.2.2.2.2.2.2.2.2.2.2.2.2.2.2.2.2.2.2.2.2.2.2.",
"2.2.2.2.2.2.2.2.2.2.2.2.2.2.2.2.2.2.2.2.2.2.2.2.2.2.2.2.2.2.2.2.2.2.2.2.2.2.2.2.2.2.2.2.2.2.2.2.2.2.2.2.2.2.2.2.2.2.2.2.2.2.2.2.",
"2.2.2.2.2.2.2.2.2.2.2.2.2.2.2.2.2.2.2.2.2.2.2.2.2.2.2.2.2.2.2.2.2.2.2.2.2.2.2.2.2.2.2.2.2.2.2.2.2.2.2.2.2.2.2.2.2.2.2.2.2.2.2.2.",
"2.2.2.2.2.2.2.2.2.2.2.2.2.2.2.2.2.2.2.2.2.2.2.2.2.2.2.2.2.2.2.2.2.2.2.2.2.2.2.2.2.2.2.2.2.2.2.2.2.2.2.2.2.2.2.2.2.2.2.2.2.2.2.2.",
"2.2.2.2.2.2.2.2.2.2.2.2.2.2.2.2.2.2.2.2.2.2.2.2.2.2.2.2.2.2.2.2.2.2.2.2.2.2.2.2.2.2.2.2.2.2.2.2.2.2.2.2.2.2.2.2.2.2.2.2.2.2.2.2.",
"2.2.2.2.2.2.2.2.2.2.2.2.2.2.2.2.2.2.2.2.2.2.2.2.2.2.2.2.2.2.2.2.2.2.2.2.2.2.2.2.2.2.2.2.2.2.2.2.2.2.2.2.2.2.2.2.2.2.2.2.2.2.2.2.",
"2.2.2.2.2.2.2.2.2.2.2.2.2.2.2.2.2.2.2.2.2.2.2.2.2.2.2.2.2.2.2.2.2.2.2.2.2.2.2.2.2.2.2.2.2.2.2.2.2.2.2.2.2.2.2.2.2.2.2.2.2.2.2.2.",
"2.2.2.2.2.2.2.2.2.2.2.2.2.2.2.2.2.2.2.2.2.2.2.2.2.2.2.2.2.2.2.2.2.2.2.2.2.2.2.2.2.2.2.2.2.2.2.2.2.2.2.2.2.2.2.2.2.2.2.2.2.2.2.2.",
"2.2.2.2.2.2.2.2.2.2.2.2.2.2.2.2.2.2.2.2.2.2.2.2.2.2.2.2.2.2.2.2.2.2.2.2.2.2.2.2.2.2.2.2.2.2.2.2.2.2.2.2.2.2.2.2.2.2.2.2.2.2.2.2.",
"2.2.2.2.2.2.2.2.2.2.2.2.2.2.2.2.2.2.2.2.2.2.2.2.2.2.2.2.2.2.2.2.2.2.2.2.2.2.2.2.2.2.2.2.2.2.2.2.2.2.2.2.2.2.2.2.2.2.2.2.2.2.2.2.",
"2.2.2.2.2.2.2.2.2.2.2.2.2.2.2.2.2.2.2.2.2.2.2.2.2.2.2.2.2.2.2.2.2.2.2.2.2.2.2.2.2.2.2.2.2.2.2.2.2.2.2.2.2.2.2.2.2.2.2.2.2.2.2.2.",
"2.2.2.2.2.2.2.2.2.2.2.2.2.2.2.2.2.2.2.2.2.2.2.2.2.2.2.2.2.2.2.2.2.2.2.2.2.2.2.2.2.2.2.2.2.2.2.2.2.2.2.2.2.2.2.2.2.2.2.2.2.2.2.2.",
"2.2.2.2.2.2.2.2.2.2.2.2.2.2.2.2.2.2.2.2.2.2.2.2.2.2.2.2.2.2.2.2.2.2.2.2.2.2.2.2.2.2.2.2.2.2.2.2.2.2.2.2.2.2.2.2.2.2.2.2.2.2.2.2."
};
