/* XPM */
static char *open[] = {
/* columns rows colors chars-per-pixel */
"32 32 36 1 ",
"  c #69485A",
". c #6F515A",
"X c #70505A",
"o c #8E675B",
"O c #8E685B",
"+ c #91635D",
"@ c #93695D",
"# c #A97759",
"$ c #AD7F5A",
"% c #976D60",
"& c #997160",
"* c #9A7163",
"= c #9F7966",
"- c #AF9643",
"; c #B29746",
": c #B29844",
"> c #AF805B",
", c #BFAA57",
"< c #ACBC65",
"1 c #C1AA56",
"2 c #CBB768",
"3 c #CDB968",
"4 c #D3BE6A",
"5 c #B2C368",
"6 c #B6C86B",
"7 c #B9CD6C",
"8 c #BFD370",
"9 c #D5C36A",
"0 c #D8C66B",
"q c #C0D470",
"w c #E1D775",
"e c #E3D977",
"r c #EAE077",
"t c #EEE67D",
"y c #ECE99D",
"u c #F3F09C",
/* pixels */
"qqqqqqqqqqqqqqqqqqqqqqqqqqqqqqqq",
"qqqqqqqqqqqqqqqqqqqqqqqqqqqqqqqq",
"qqqqqqqqqqqqqqqqqqqqqqqqqqqqqqqq",
"qqqqqqqqqqqqqqqqqqqqqqqqqqqqqqqq",
"qqqqqqqqqqqqqqqqqqqqqqqqqqqqqqqq",
"qqqqqqqqqqqqqqqqqqqqqqqqqqqqqqqq",
"qqqqqqqqqqqq8qqqqqqqqq8qqqqqqqqq",
"qqqqqqqqq8558qqqqqq855q8qqqqqqqq",
"qqqqqqqq8<**<555555<**<q8qqqqqqq",
"qqqqqqq8<=09********09*<qqqqqqqq",
"qqqqqqq5*utttttttttttte%6qqqqqqq",
"qqqqqqq6@;yyeeer9eeeew;@6qqqqqqq",
"qqqqqqq6@-     32     -@6qqqqqqq",
"qqqqqqq6@-            ;@6qqqqqqq",
"qqqqqqq5@;.          X-@6qqqqqqq",
"qqqqqqq5@:-X XXXXXX.X;;@6qqqqqqq",
"qqqqqqq5@1;----------;1@6qqqqqqq",
"qqqqqqq5@9,++++++++++14@6qqqqqqq",
"qqqqqqq5@99$$$$$$$$$$94@6qqqqqqq",
"qqqqqqq5%94$$$$$####$99@6qqqqqqq",
"qqqqqqq6@49$$$$$$$>$>94O6qqqqqqq",
"qqqqqqq85@444444444444O58qqqqqqq",
"qqqqqqqq85OoOOOOOOOOOO58qqqqqqqq",
"qqqqqqqqq87777777777778qqqqqqqqq",
"qqqqqqqqqqqqqqqqqqqqqqqqqqqqqqqq",
"qqqqqqqqqqqqqqqqqqqqqqqqqqqqqqqq",
"qqqqqqqqqqqqqqqqqqqqqqqqqqqqqqqq",
"qqqqqqqqqqqqqqqqqqqqqqqqqqqqqqqq",
"qqqqqqqqqqqqqqqqqqqqqqqqqqqqqqqq",
"qqqqqqqqqqqqqqqqqqqqqqqqqqqqqqqq",
"qqqqqqqqqqqqqqqqqqqqqqqqqqqqqqqq",
"qqqqqqqqqqqqqqqqqqqqqqqqqqqqqqqq"
};
