/* XPM */
static const char *player[] = {
/* columns rows colors chars-per-pixel */
"64 64 124 2 ",
"   c #91967E",
".  c #93997E",
"X  c #A6B277",
"o  c #A9B676",
"O  c #AEBC75",
"+  c #A5B178",
"@  c #B0BF75",
"#  c #B1C075",
"$  c #BBCE71",
"%  c #BDD071",
"&  c #C2D76F",
"*  c #C4D96F",
"=  c #C0D470",
"-  c #EDE478",
";  c #594C8E",
":  c #5D508F",
">  c #5B4E90",
",  c #5D5090",
"<  c #675E8A",
"1  c #685F8C",
"2  c #6E6886",
"3  c #6B638A",
"4  c #6F6889",
"5  c #716B89",
"6  c #7C659A",
"7  c #7C6D9E",
"8  c #7D729E",
"9  c #6E64A9",
"0  c #7669A7",
"q  c #796BA3",
"w  c #7067A9",
"e  c #7970AB",
"r  c #887E94",
"t  c #80759E",
"y  c #847C9A",
"u  c #8373A2",
"i  c #887FA0",
"p  c #858683",
"a  c #868882",
"s  c #888295",
"d  c #9DA282",
"f  c #B6AD8B",
"g  c #8780AB",
"h  c #8C83AD",
"j  c #958DA3",
"k  c #938BAE",
"l  c #988FAB",
"z  c #9A92A5",
"x  c #938CB0",
"c  c #A9A2A1",
"v  c #B7A2AD",
"b  c #B7B2AB",
"n  c #ACA7B2",
"m  c #A9A0BD",
"M  c #B7B2B1",
"N  c #BCB7B9",
"B  c #C498A6",
"V  c #C7A5AA",
"C  c #C8A7AB",
"Z  c #CCBEB2",
"A  c #CEB5B9",
"S  c #CFBBB9",
"D  c #EAB3AB",
"F  c #D7CE82",
"G  c #D1CA91",
"H  c #E6DE86",
"J  c #EEE784",
"K  c #EEE788",
"L  c #F2EA82",
"P  c #E8E295",
"I  c #F0EB96",
"U  c #D5D1AE",
"Y  c #DBD6AC",
"T  c #CEC7B7",
"R  c #CFCBB6",
"E  c #CBC5BB",
"W  c #D0CCB6",
"Q  c #D3CBBA",
"!  c #D5D2B7",
"~  c #D9D6B7",
"^  c #DDD9B0",
"/  c #D4D2BB",
"(  c #D8D5B8",
")  c #DEDCBC",
"_  c #EDC5B1",
"`  c #EDCFB4",
"'  c #F0C8B2",
"]  c #E1DFBD",
"[  c #F1D4B6",
"{  c #F5F1A0",
"}  c #F4F2AF",
"|  c #E9E7BD",
" . c #EDEBBE",
".. c #F2E6BC",
"X. c #F6ECBE",
"o. c #F4F2B3",
"O. c #F3F3BF",
"+. c #BEB3CE",
"@. c #C3BBC7",
"#. c #C2B9C8",
"$. c #CCC5CA",
"%. c #DDD4DF",
"&. c #E2DCD7",
"*. c #E4DED8",
"=. c #E7E4C4",
"-. c #EEEBC7",
";. c #EEECC8",
":. c #FBE5C6",
">. c #F8E8C4",
",. c #F5F4C0",
"<. c #FAF3C4",
"1. c #F9F5C2",
"2. c #F8F8C1",
"3. c #F6F4CB",
"4. c #F3F1CA",
"5. c #F8F6CB",
"6. c #E6E1D1",
"7. c #EBE5DB",
"8. c #ECE6DB",
"9. c #EAE4DB",
"0. c #DED6E0",
"q. c #DFD7E0",
"w. c #E0D8E0",
"e. c #E0D8E1",
/* pixels */
"= = = = = = = = = = = = = = = = = = = = = = = = = = = = = = = = = = = = = = = = = = = = = = = = = = = = = = = = = = = = = = = = ",
"= = = = = = = = = = = = = = = = = = = = = = = = = = = = = = = = = = = = = = = = = = = = = = = = = = = = = = = = = = = = = = = = ",
"= = = = = = = = = = = = = = = = = = = = = = = = = = = = = = = = = = = = = = = = = = = = = = = = = = = = = = = = = = = = = = = = ",
"= = = = = = = = = = = = = = = = = = = = = = = = = = = = = = = = = = = = = = = = = = = = = = = = = = = = = = = = = = = = = = = = ",
"= = = = = = = = = = = = = = = = = = = = = = = = = = = = = = = = = = = = = = = = = = = = = = = = = = = = = = = = = = = = = = = = ",
"= = = = = = = = = = = = = = = = = = = = = = = = = = = = = = = = = = = = = = = = = = = = = = = = = = = = = = = = = = = = = = = = ",
"= = = = = = = = = = = = = = = = = = = = = = = = = = = = = = = = = = = = = = = = = = = = = = = = = = = = = = = = = = = = = = = = ",
"= = = = = = = = = = = = = = = = = = = = = = = = = = = = = = = = = = = = = = = = = = = = = = = = = = = = = = = = = = = = = = = = ",
"= = = = = = = = = = = = = = = = = = = = = = = = = = = = = = = = = = = = = = = = = = = = = = = = = = = = = = = = = = = = = = = = ",
"= = = = = = = = = = = = = = = = = = = = = = = = = = = = = = = = = = = = = = = = = = = = = = = = = = = = = = = = = = = = = = = = ",
"= = = = = = = = = = = = = = = = = = = = = = = = = = = = = = = = = = = = = = = = = = = = = = = = = = = = = = = = = = = = = = = = ",
"= = = = = = = = = = = = = = = = = = = = = = = = = = = = = = = = = = = = = = = = = = = = = = = = = = = = = = = = = = = = = = = = ",
"= = = = = = = = = = = = = = = = = = = = = = = = = = = = = = = = = = = = = = = = = = = = = = = = = = = = = = = = = = = = = = = = ",
"= = = = = = = = = = = = = = = = = = = = = = = & & & & = = = = = = = = = = & & & & = = = = = = = = = = = = = = = = = = = = = = = ",
"= = = = = = = = = = = = = = = = = = = = = = & & & & & & = = = = = = = = & & & & & & = = = = = = = = = = = = = = = = = = = = = = ",
"= = = = = = = = = = = = = = = = = = = = & $ O + + + + O $ & = = = = & $ O + + + + O $ & = = = = = = = = = = = = = = = = = = = = ",
"= = = = = = = = = = = = = = = = = = = & * O p 4 5 4 4 p O * = = = & * O p 4 4 4 4 p O * & = = = = = = = = = = = = = = = = = = = ",
"= = = = = = = = = = = = = = = = = = = $ O d s 8 8 8 8 s d O $ & & $ O d s 8 8 8 8 s d O $ = = = = = = = = = = = = = = = = = = = ",
"= = = = = = = = = = = = = = = = = = & O p s b R R R R b s p O * * O p s b R R R W b s p O & = = = = = = = = = = = = = = = = = = ",
"= = = = = = = = = = = = = = = = = & & + 4 7 T X.X.X.2.R 8 <   o o   < 8 R 2.X.X.X.Z 7 4 + * & = = = = = = = = = = = = = = = = = ",
"= = = = = = = = = = = = = = = = = & & + 5 6 C ' _ [ X.R 8 ; 3 5 5 3 ; 8 R X.[ _ ' C 6 5 + & = = = = = = = = = = = = = = = = = = ",
"= = = = = = = = = = = = = = = = = & & + 5 6 B D D _ ../ l q q q q q q l / .._ D D B 6 5 + & = = = = = = = = = = = = = = = = = = ",
"= = = = = = = = = = = = = = = = = & & + 5 6 B D D _ ..=.$.+.+.+.+.+.+.$.=..._ D D B 6 5 + & = = = = = = = = = = = = = = = = = = ",
"= = = = = = = = = = = = = = = = = & & + 5 6 V _ _ ` ..;.*.w.w.w.w.w.w.*.;...` _ _ V 6 5 + & = = = = = = = = = = = = = = = = = = ",
"= = = = = = = = = = = = = = = = = & & + 5 7 Z ......X.;.*.0.0.%.%.0.0.*.;.X.......Z 7 5 + = = = = = = = = = = = = = = = = = = = ",
"= = = = = = = = = = = = = = = = = & * X 5 8 R ,.,.,.O.-.&.%.%.%.%.%.%.&.-.O.,.,.,.R 8 5 X * = = = = = = = = = = = = = = = = = = ",
"= = = = = = = = = = = = = = = = = & * o 5 8 R ,.,.,.O.-.&.%.%.%.%.%.%.&.-.O.,.,.,.R 8 5 o * & = = = = = = = = = = = = = = = = = ",
"= = = = = = = = = = = = = = = = = $ O   3 8 R ,.,.,.,.-.6.&.&.&.&.&.&.6.-.,.,.,.,.R 8 3   O $ = = = = = = = = = = = = = = = = = ",
"= = = = = = = = = = = = = = = = & O p 1 , t R ,.2.,.,.,.-.-.-.-.-.-.-.-.,.,.,.2.2.R t , 3 p O & = = = = = = = = = = = = = = = = ",
"= = = = = = = = = = = = = = = = & O p 3 : t R  .! ! | ,.,.O.O.O.O.O.O.,.,.| ! (  .R t : 3 p O & = = = = = = = = = = = = = = = = ",
"= = = = = = = = = = = = = = = = = $ @ . 3 t W ( z j ! ,.,.,.,.,.,.,.,.,.,.! j z ( W t 3 . @ $ = = = = = = = = = = = = = = = = = ",
"= = = = = = = = = = = = = = = = = $ @ . 3 t W ( z j ! ,.,.,.,.,.,.,.,.,.,.! j z ( W t 3 . @ $ = = = = = = = = = = = = = = = = = ",
"= = = = = = = = = = = = = = = = & O p 3 : t R  .( ! | ,.,.,.,.,.,.,.,.,.,.| ! (  .R t : 3 p O & = = = = = = = = = = = = = = = = ",
"= = = = = = = = = = = = = = = = & O p 1 > 8 T <.<.1.,.,.,.,.,.,.,.,.,.,.,.,.1.<.<.T 8 > 1 p O & = = = = = = = = = = = = = = = = ",
"= = = = = = = = = = = = = = = = = $ O   3 q S :.:.>.,.,.,.,.,.,.,.,.,.,.,.,.>.:.:.S q 1   O $ = = = = = = = = = = = = = = = = = ",
"= = = = = = = = = = = = = = = = = & * O a r v A A S Q / / / / / / / / / / Q S A A v r p O * & = = = = = = = = = = = = = = = = = ",
"= = = = = = = = = = = = = = = = = = & $ # d r 7 7 u h x x x x x k k k x x h u 7 7 r d # $ = = = = = = = = = = = = = = = = = = = ",
"= = = = = = = = = = = = = = = = = = = $ # d y q 8 8 0 w w q i j k h e w w 0 8 8 q y d # $ = = = = = = = = = = = = = = = = = = = ",
"= = = = = = = = = = = = = = = = = & & O p y m @.E M i 9 9 i f G U N h 9 9 i M E @.m y p O & = = = = = = = = = = = = = = = = = = ",
"= = = = = = = = = = = = = = = = = & & X 4 0 +.8.5.] n x x c F L { ^ n k k n ] 3.8.+.0 4 X & = = = = = = = = = = = = = = = = = = ",
"= = = = = = = = = = = = = = = = = & & X 4 0 +.7.3.O.) / / Y H - J P Y / / ) O.3.7.+.0 4 X & & = = = = = = = = = = = = = = = = = ",
"= = = = = = = = = = = = = = = = = = & O p y m #.E ~  .,.,.o.I K K I o.,.,. .~ E #.m y p O & = = = = = = = = = = = = = = = = = = ",
"= = = = = = = = = = = = = = = = = = = $ O d y q 7 z ~ 2.,.O.o.} } o.O.,.2.~ z 7 q y d O $ = = = = = = = = = = = = = = = = = = = ",
"= = = = = = = = = = = = = = = = = = = & * O p < ; 7 E 4.4.=./ T R / =.4.4.E 7 ; < p O * & = = = = = = = = = = = = = = = = = = = ",
"= = = = = = = = = = = = = = = = = = = = & $ O   < q #.7.7.$.l 7 7 l $.7.7.#.q <   O $ & = = = = = = = = = = = = = = = = = = = = ",
"= = = = = = = = = = = = = = = = = = = = = & * O p y m +.+.m y 2 2 y m +.+.m y p O * & = = = = = = = = = = = = = = = = = = = = = ",
"= = = = = = = = = = = = = = = = = = = = = = = $ O d y 0 0 y d o o d y 0 0 y d O $ & = = = = = = = = = = = = = = = = = = = = = = ",
"= = = = = = = = = = = = = = = = = = = = = = = & * O p 4 4 p O * * O p 4 4 p O * & = = = = = = = = = = = = = = = = = = = = = = = ",
"= = = = = = = = = = = = = = = = = = = = = = = = & $ O X X O $ & & $ O X X O $ & = = = = = = = = = = = = = = = = = = = = = = = = ",
"= = = = = = = = = = = = = = = = = = = = = = = = = = & & & & = = = = & & & & = = = = = = = = = = = = = = = = = = = = = = = = = = ",
"= = = = = = = = = = = = = = = = = = = = = = = = = = = & & = = = = = = & & = = = = = = = = = = = = = = = = = = = = = = = = = = = ",
"= = = = = = = = = = = = = = = = = = = = = = = = = = = = = = = = = = = = = = = = = = = = = = = = = = = = = = = = = = = = = = = = ",
"= = = = = = = = = = = = = = = = = = = = = = = = = = = = = = = = = = = = = = = = = = = = = = = = = = = = = = = = = = = = = = = = ",
"= = = = = = = = = = = = = = = = = = = = = = = = = = = = = = = = = = = = = = = = = = = = = = = = = = = = = = = = = = = = = = = = ",
"= = = = = = = = = = = = = = = = = = = = = = = = = = = = = = = = = = = = = = = = = = = = = = = = = = = = = = = = = = = = = = = = ",
"= = = = = = = = = = = = = = = = = = = = = = = = = = = = = = = = = = = = = = = = = = = = = = = = = = = = = = = = = = = = = = = = ",
"= = = = = = = = = = = = = = = = = = = = = = = = = = = = = = = = = = = = = = = = = = = = = = = = = = = = = = = = = = = = = = = = ",
"= = = = = = = = = = = = = = = = = = = = = = = = = = = = = = = = = = = = = = = = = = = = = = = = = = = = = = = = = = = = = = = = ",
"= = = = = = = = = = = = = = = = = = = = = = = = = = = = = = = = = = = = = = = = = = = = = = = = = = = = = = = = = = = = = = = = ",
"= = = = = = = = = = = = = = = = = = = = = = = = = = = = = = = = = = = = = = = = = = = = = = = = = = = = = = = = = = = = = = = = ",
"= = = = = = = = = = = = = = = = = = = = = = = = = = = = = = = = = = = = = = = = = = = = = = = = = = = = = = = = = = = = = = = = ",
"= = = = = = = = = = = = = = = = = = = = = = = = = = = = = = = = = = = = = = = = = = = = = = = = = = = = = = = = = = = = = = = = ",
"= = = = = = = = = = = = = = = = = = = = = = = = = = = = = = = = = = = = = = = = = = = = = = = = = = = = = = = = = = = = = = = = ",
"= = = = = = = = = = = = = = = = = = = = = = = = = = = = = = = = = = = = = = = = = = = = = = = = = = = = = = = = = = = = = = = = "
};
