/* XPM */
static char *top[] = {
/* columns rows colors chars-per-pixel */
"32 32 51 1 ",
"  c #876757",
". c #886757",
"X c #8B655A",
"o c #916F5C",
"O c #946C60",
"+ c #986E60",
"@ c #9A7160",
"# c #AB964E",
"$ c #AF9A4D",
"% c #BFA955",
"& c #A3B362",
"* c #AABB64",
"= c #C3B064",
"- c #C9B766",
"; c #AFC169",
": c #B1C367",
"> c #B5C76B",
", c #B5C86B",
"< c #BFD36F",
"1 c #BFD370",
"2 c #D3CA6F",
"3 c #D7CC72",
"4 c #C0D470",
"5 c #DED574",
"6 c #E6DD7A",
"7 c #ECE37B",
"8 c #5E5084",
"9 c #5F518E",
"0 c #62548B",
"q c #675C8C",
"w c #695A8F",
"e c #665691",
"r c #665A92",
"t c #685B96",
"y c #776EAA",
"u c #786FAB",
"i c #7970AB",
"p c #E6B5AD",
"a c #EAB7AD",
"s c #ECBAAD",
"d c #DCD991",
"f c #EEECBF",
"g c #EFEFBF",
"h c #F0EFBF",
"j c #F5F2BF",
"k c #DBD3DE",
"l c #E9D2C3",
"z c #EFD8C4",
"x c #ECEBC1",
"c c #F1EFC1",
"v c #F2F1C1",
/* pixels */
"44444444444444444444444444444444",
"44444444444444444444444444444444",
"44444444444444444444444444444444",
"44444444444444444444444444444444",
"44444444444444444444444444444444",
"44444444444444444444444444444444",
"44444444444444444444444444444444",
"44444444441>>,4441>>,44444444444",
"444444444<*wrw;44>wrw*1444444444",
"444444441*0xvxq**wxvx0*144444444",
"44444441>.epshe90efspe >14444444",
"4444444,o3wpsvkkkkvapr3o,4444444",
"4444444>o5thjvkkkkvjxt5O>4444444",
"4444444>o3tvvvkkkkvvxt2o>4444444",
"4444444>X0ehfvvvvjjffe0X>4444444",
"4444444>OdtftfvjjjftftdO>4444444",
"4444444>X8ecxvvvvvvffe8X>4444444",
"4444444>o#qlzffxffxzlq#o>4444444",
"4444444>o%$0eyuiiuye0$%o>4444444",
"4444444>o=wkxiu6fiifkw=o>4444444",
"4444444>O-wkxhh77fjxkw-+>4444444",
"44444444*@=wecvhfvcew=@*14444444",
"444444414*@X0kk00kk0X@*144444444",
"4444444411>:&tq&&tq&>>1444444444",
"4444444441444,>14,>1444444444444",
"44444444444444444444444444444444",
"44444444444444444444444444444444",
"44444444444444444444444444444444",
"44444444444444444444444444444444",
"44444444444444444444444444444444",
"44444444444444444444444444444444",
"44444444444444444444444444444444"
};
