/* XPM */
static const char *top[] = {
/* columns rows colors chars-per-pixel */
"64 64 194 2 ",
"   c #755B6E",
".  c #69597D",
"X  c #6B647D",
"o  c #796C79",
"O  c #7F7F7A",
"+  c #967E5D",
"@  c #9B7C5B",
"#  c #91705A",
"$  c #866562",
"%  c #896764",
"&  c #896867",
"*  c #816C66",
"=  c #8A7765",
"-  c #88746C",
";  c #997E61",
":  c #9D7D6A",
">  c #9C7761",
",  c #816C7B",
"<  c #8C7B78",
"1  c #A27D60",
"2  c #97815F",
"3  c #98825F",
"4  c #9C8C5D",
"5  c #A89356",
"6  c #B69E5C",
"7  c #B19854",
"8  c #B8A356",
"9  c #8E8E6A",
"0  c #9A8260",
"q  c #97856A",
"w  c #969767",
"e  c #85857C",
"r  c #888A77",
"t  c #8D9179",
"y  c #949979",
"u  c #A48661",
"i  c #A58A61",
"p  c #A88764",
"a  c #A19263",
"s  c #AB936A",
"d  c #AE9B6D",
"f  c #A59D62",
"g  c #B49C63",
"h  c #A6987A",
"j  c #B09E70",
"k  c #98A16A",
"l  c #9FAB6C",
"z  c #9FAA73",
"x  c #9BA07D",
"c  c #ABAF66",
"v  c #A2AE6D",
"b  c #ABAF68",
"n  c #A6A765",
"m  c #BCA462",
"M  c #B0A06F",
"N  c #BBA867",
"B  c #ABB166",
"V  c #AEB867",
"C  c #AFB969",
"Z  c #A9B16B",
"A  c #B0B769",
"S  c #B1B969",
"D  c #A0AA73",
"F  c #A7B371",
"G  c #A9B671",
"H  c #BEB57A",
"J  c #CCBC6C",
"K  c #C1B87C",
"L  c #C1B77B",
"P  c #AEC164",
"I  c #B2C565",
"U  c #B5C66C",
"Y  c #B5C96A",
"T  c #B9CD6C",
"R  c #BED26F",
"E  c #BFD370",
"W  c #C0D470",
"Q  c #C0D46F",
"!  c #EEE57A",
"~  c #604E8B",
"^  c #655183",
"/  c #6C5A83",
"(  c #65568B",
")  c #695A90",
"_  c #705D83",
"`  c #6C6282",
"'  c #6F6981",
"]  c #766F87",
"[  c #766A8D",
"{  c #796C8B",
"}  c #796A86",
"|  c #757087",
" . c #7A6F93",
".. c #7E729F",
"X. c #7F7397",
"o. c #7C6FA1",
"O. c #7167AA",
"+. c #7269AA",
"@. c #776DA6",
"#. c #7E71A2",
"$. c #7B72AC",
"%. c #826F81",
"&. c #83768C",
"*. c #887887",
"=. c #826D99",
"-. c #846D97",
";. c #837C93",
":. c #8B7C94",
">. c #82749C",
",. c #867A9D",
"<. c #887C9E",
"1. c #8174A5",
"2. c #867CA1",
"3. c #887CA0",
"4. c #8174A9",
"5. c #87808F",
"6. c #848481",
"7. c #8C8493",
"8. c #B6A883",
"9. c #B5AC8D",
"0. c #A9A391",
"q. c #8B83AD",
"w. c #8980A1",
"e. c #938BAB",
"r. c #9D95A6",
"t. c #9C92AA",
"y. c #938CB0",
"u. c #A197A5",
"i. c #B3A0A7",
"p. c #B6B1AA",
"a. c #ABA2BA",
"s. c #ACA6B3",
"d. c #B7B2B4",
"f. c #A9A2A2",
"g. c #C69CA6",
"h. c #C8A8AB",
"j. c #C6A7AB",
"k. c #CBB4B7",
"l. c #CBBDB3",
"z. c #CDBCB8",
"x. c #EBB6AC",
"c. c #D2CA8B",
"v. c #E6DE88",
"b. c #EFE787",
"n. c #EBE597",
"m. c #F0EB99",
"M. c #D9D4AC",
"N. c #CCC6B5",
"B. c #CECAB6",
"V. c #CBC5BA",
"C. c #CFCCBC",
"Z. c #D0CCB7",
"A. c #D1CDBA",
"S. c #D5D1B7",
"D. c #DAD5B5",
"F. c #D5D2B9",
"G. c #DCDABC",
"H. c #D2CDAE",
"J. c #EDC6B1",
"K. c #EEC8B3",
"L. c #F0C9B3",
"P. c #F1D4B6",
"I. c #EED0B5",
"U. c #F2EEAA",
"Y. c #E7E5BE",
"T. c #E9E6BD",
"R. c #EBE8BD",
"E. c #F2E5BC",
"W. c #F4EABE",
"Q. c #F1EEB3",
"!. c #F5F2BF",
"~. c #F3F1B3",
"^. c #BCB2CB",
"/. c #C2BAC6",
"(. c #C0B7CF",
"). c #C3BBC8",
"_. c #C0B7D0",
"`. c #CCC4C9",
"'. c #DBD2DF",
"]. c #E0DAD7",
"[. c #E1DBD8",
"{. c #EDEBC4",
"}. c #EDEAC8",
"|. c #EDEAC9",
" X c #E6E3C4",
".X c #F3E2C5",
"XX c #F2EEC3",
"oX c #F1EECB",
"OX c #F3F2C1",
"+X c #F3F2C1",
"@X c #E7E1DC",
"#X c #E8E2DC",
"$X c #E5E0D1",
"%X c #DDD5E0",
/* pixels */
"W W W W W W W W W W W W W W W W W W W W W W W W W W W W W W W W W W W W W W W W W W W W W W W W W W W W W W W W W W W W W W W W ",
"W W W W W W W W W W W W W W W W W W W W W W W W W W W W W W W W W W W W W W W W W W W W W W W W W W W W W W W W W W W W W W W W ",
"W W W W W W W W W W W W W W W W W W W W W W W W W W W W W W W W W W W W W W W W W W W W W W W W W W W W W W W W W W W W W W W W ",
"W W W W W W W W W W W W W W W W W W W W W W W W W W W W W W W W W W W W W W W W W W W W W W W W W W W W W W W W W W W W W W W W ",
"W W W W W W W W W W W W W W W W W W W W W W W W W W W W W W W W W W W W W W W W W W W W W W W W W W W W W W W W W W W W W W W W ",
"W W W W W W W W W W W W W W W W W W W W W W W W W W W W W W W W W W W W W W W W W W W W W W W W W W W W W W W W W W W W W W W W ",
"W W W W W W W W W W W W W W W W W W W W W W W W W W W W W W W W W W W W W W W W W W W W W W W W W W W W W W W W W W W W W W W W ",
"W W W W W W W W W W W W W W W W W W W W W W W W W W W W W W W W W W W W W W W W W W W W W W W W W W W W W W W W W W W W W W W W ",
"W W W W W W W W W W W W W W W W W W W W W W W W W W W W W W W W W W W W W W W W W W W W W W W W W W W W W W W W W W W W W W W W ",
"W W W W W W W W W W W W W W W W W W W W W W W W W W W W W W W W W W W W W W W W W W W W W W W W W W W W W W W W W W W W W W W W ",
"W W W W W W W W W W W W W W W W W W W W W W W W W W W W W W W W W W W W W W W W W W W W W W W W W W W W W W W W W W W W W W W W ",
"W W W W W W W W W W W W W W W W W W W W W W W W W W W W W W W W W W W W W W W W W W W W W W W W W W W W W W W W W W W W W W W W ",
"W W W W W W W W W W W W W W W W W W W W W W W W W W W W W W W W W W W W W W W W W W W W W W W W W W W W W W W W W W W W W W W W ",
"W W W W W W W W W W W W W W W W W W W W W W R R R R R R W W W W W W W W R R R R R R W W W W W W W W W W W W W W W W W W W W W W ",
"W W W W W W W W W W W W W W W W W W W W W R T T T T T T R W W W W W W R T T T T T T R W W W W W W W W W W W W W W W W W W W W W ",
"W W W W W W W W W W W W W W W W W W W R R U F D D D D F U R W W W W R U G D D D D F U R R W W W W W W W W W W W W W W W W W W W ",
"W W W W W W W W W W W W W W W W W W W R Y v e ] ] ] ] e F T R W W Q R G e ] ] | ] e v Y R W W W W W W W W W W W W W W W W W W W ",
"W W W W W W W W W W W W W W W W W R R U v y 7.,.,.,.,.7.y F U R R U G x 7.,.,.,.,.7.y v U R R W W W W W W W W W W W W W W W W W ",
"W W W W W W W W W W W W W W W W W R Y v O 5.p.B.Z.B.B.p.7.e v I I v e 7.p.B.Z.Z.B.p.5.< l Y R W W W W W W W W W W W W W W W W W ",
"W W W W W W W W W W W W W W W W E Y B 9 ` >.l.E.W.W.+XB.,.` r k k r ` ,.B.+XW.W.E.l.>.` 9 B U E W W W W W W W W W W W W W W W W ",
"W W W W W W W W W W W W W W W E R V 4 * / =.h.J.L.P.W.B.,.( ` ' X ` ( ,.B.E.P.L.K.h.=./ * 4 V R E W W W W W W W W W W W W W W W ",
"W W W W W W W W W W W W W E R T S n 4 - _ -.g.x.x.J.E.F.t.#.o.o.#.#.#.t.F.E.J.x.x.g.=./ - 4 n S T R E W W W W W W W W W W W W W ",
"W W W W W W W W W W W W W R T C w i N j } -.g.x.x.J.E. X`.^.^.^.^.^.^.`. XE.J.x.x.g.=.} j N i a C T R W W W W W W W W W W W W W ",
"W W W W W W W W W W W W W R T B 2 u J H &.>.h.J.J.P.E.|.[.%X%X%X%X%X%X[.|.E.I.J.J.j.>.&.H J u 0 B T R W W W W W W W W W W W W W ",
"W W W W W W W W W W W W W R T B 2 u J K &.,.l.E.E.E.W.|.[.%X%X'.'.%X%X[.|.W.E.E.T.l.2.&.K J u ; b T R W W W W W W W W W W W W W ",
"W W W W W W W W W W W W W R T B 3 u J K &.3.B.+X+X+X+X|.].'.'.'.'.'.'.].|.+X+X+X+XV.2.&.L J u 0 b T R W W W W W W W W W W W W W ",
"W W W W W W W W W W W W W R T B 3 u J L &.3.B.+X+X+X+X|.].'.'.'.'.'.'.].|.+X+X+X+XV.2.&.H J u 0 B T R W W W W W W W W W W W W W ",
"W W W W W W W W W W W W W R T B 2 ; j h { 3.B.+X+X+X+X{.$X].].].].].].$X{.+X+X+X+XN.2.{ h d ; 2 B T R W W W W W W W W W W W W W ",
"W W W W W W W W W W W W W R T c + % o [ ) ,.B.+X+X+X+XXX{.|.|.|.|.|.}.XX+X+X+X+X+XN.,.) [ o % + B T R W W W W W W W W W W W W W ",
"W W W W W W W W W W W W W R T b + & %.[ ) ,.B.R.S.S.Y.+X+X+X+X+X+X!.!.!.!.T.S.S.T.B.,.) [ %.& + c T R W W W W W W W W W W W W W ",
"W W W W W W W W W W W W W R T b ; : 8.0. .3.B.F.r.r.S.+X+X+X!.!.!.!.!.!.!.S.r.r.F.B.,. .0.8.: ; b T R W W W W W W W W W W W W W ",
"W W W W W W W W W W W W W R T b ; : 8.0. .3.B.F.r.r.S.+X+X+X+X!.!.!.!.+X+XS.r.r.F.B.3. .0.8.: ; b T R W W W W W W W W W W W W W ",
"W W W W W W W W W W W W W R T c + % , [ ) <.Z.R.F.A.Y.+X+X+X+X+X+X+X+X+X+XY.S.S.T.B.,.) [ , % + c T R W W W W W W W W W W W W W ",
"W W W W W W W W W W W W W R T B + $   . ( ,.N.XXXXXX+X+X+X+X+X+X+X+X+X+X+X+XXXXXXXN.,.( .   $ + B T R W W W W W W W W W W W W W ",
"W W W W W W W W W W W W W R T B 3 # + = ` ,.z..X.X.XXX+X!.+XXXXX+X+X+X+X+XXX.X.X.Xz.,.` = + # 3 B T R W W W W W W W W W W W W W ",
"W W W W W W W W W W W W W R T B 0 @ 5 5 - *.i.k.k.z.Z.A.A.A.C.C.C.A.A.A.A.V.z.k.k.i.*.- 5 5 @ 0 B T R W W W W W W W W W W W W W ",
"W W W W W W W W W W W W W R T B 0 @ 7 8 5 q *.=.>.3.q.y.y.y.y.y.y.y.y.y.y.q.3.>.=.*.q 5 8 7 @ 0 B T R W W W W W W W W W W W W W ",
"W W W W W W W W W W W W W R T B 0 @ 6 8 5 q &...>...@.+.+.$.w.e.y.q.$.+.+.@.>.>...&.q 5 8 6 @ 3 B T R W W W W W W W W W W W W W ",
"W W W W W W W W W W W W W R T B 0 @ 6 g < :.a./.V.d.q.O.O.3.9.c.H.d.q.O.O.q.d.V./.a.:.< g 6 @ 3 B T R W W W W W W W W W W W W W ",
"W W W W W W W W W W W W W R T B 0 @ m d } 1.(.#XoXG.s.y.y.f.c.b.U.D.s.y.y.s.G.oX#X(.1.} d m @ 3 B T R W W W W W W W W W W W W W ",
"W W W W W W W W W W W W W R T b ; 1 m M } 1.(.@XoX{.G.A.A.M.v.! b.n.M.A.F.G.{.oX@X(.1.} M m 1 0 B T R W W W W W W W W W W W W W ",
"W W W W W W W W W W W W W R T A w u g d < :.a.).V.S.R.+X+X~.m.b.b.m.Q.+X+XR.S.V.).a.:.< d g u a A T R W W W W W W W W W W W W W ",
"W W W W W W W W W W W W W W R U B f u p s h 7.1.>.u.D.+X+X!.~.Q.Q.Q.!.+X+XD.u.>.1.7.h s p u f B U R W W W W W W W W W W W W W W ",
"W W W W W W W W W W W W W W W R Y B a u g s , ^ ~ >.V.oXoX XF.N.N.A. XoXoXV.>.~ ^ , s g u a B Y R W W W W W W W W W W W W W W W ",
"W W W W W W W W W W W W W W W E R U B f u > %   ^ #./.@X@X`.t.X.X.t.`.@X#X/.#.^   % > u f B U R E W W W W W W W W W W W W W W W ",
"W W W W W W W W W W W W W W W W W R Y B a 0 + = o ;.a._.(.a.;.X X ;.a._.(.a.;.o = + 0 a B Y R W W W W W W W W W W W W W W W W W ",
"W W W W W W W W W W W W W W W W W R R U S b c n k t ,.4.1.;.t w w t ,.4.1.;.t k n B B S U R R W W W W W W W W W W W W W W W W W ",
"W W W W W W W W W W W W W W W W W W W R T T Y Y P l 6.| ] e l P P l 6.| ] e l I Y T T T R W W W W W W W W W W W W W W W W W W W ",
"W W W W W W W W W W W W W W W W W W E E R R R R T U F D z F U T T U F z z F U T R R R R W W W W W W W W W W W W W W W W W W W W ",
"W W W W W W W W W W W W W W W W W W E E W W W W W R T T T T R W W R T T T T R W W W W W W W W W W W W W W W W W W W W W W W W W ",
"W W W W W W W W W W W W W W W W W W W W W W W W W W R R R R W W W W R R R R W W W W W W W W W W W W W W W W W W W W W W W W W W ",
"W W W W W W W W W W W W W W W W W W W W W W W W W W W W W W W W W W W W W W W W W W W W W W W W W W W W W W W W W W W W W W W W ",
"W W W W W W W W W W W W W W W W W W W W W W W W W W W W W W W W W W W W W W W W W W W W W W W W W W W W W W W W W W W W W W W W ",
"W W W W W W W W W W W W W W W W W W W W W W W W W W W W W W W W W W W W W W W W W W W W W W W W W W W W W W W W W W W W W W W W ",
"W W W W W W W W W W W W W W W W W W W W W W W W W W W W W W W W W W W W W W W W W W W W W W W W W W W W W W W W W W W W W W W W ",
"W W W W W W W W W W W W W W W W W W W W W W W W W W W W W W W W W W W W W W W W W W W W W W W W W W W W W W W W W W W W W W W W ",
"W W W W W W W W W W W W W W W W W W W W W W W W W W W W W W W W W W W W W W W W W W W W W W W W W W W W W W W W W W W W W W W W ",
"W W W W W W W W W W W W W W W W W W W W W W W W W W W W W W W W W W W W W W W W W W W W W W W W W W W W W W W W W W W W W W W W ",
"W W W W W W W W W W W W W W W W W W W W W W W W W W W W W W W W W W W W W W W W W W W W W W W W W W W W W W W W W W W W W W W W ",
"W W W W W W W W W W W W W W W W W W W W W W W W W W W W W W W W W W W W W W W W W W W W W W W W W W W W W W W W W W W W W W W W ",
"W W W W W W W W W W W W W W W W W W W W W W W W W W W W W W W W W W W W W W W W W W W W W W W W W W W W W W W W W W W W W W W W ",
"W W W W W W W W W W W W W W W W W W W W W W W W W W W W W W W W W W W W W W W W W W W W W W W W W W W W W W W W W W W W W W W W ",
"W W W W W W W W W W W W W W W W W W W W W W W W W W W W W W W W W W W W W W W W W W W W W W W W W W W W W W W W W W W W W W W W ",
"W W W W W W W W W W W W W W W W W W W W W W W W W W W W W W W W W W W W W W W W W W W W W W W W W W W W W W W W W W W W W W W W "
};
