/* XPM */
static char *trap[] = {
/* columns rows colors chars-per-pixel */
"64 64 57 1 ",
"  c #5F7C7B",
". c #5F7E7A",
"X c #66857D",
"o c #69877F",
"O c #678D7B",
"+ c #6A8B7F",
"@ c #728C76",
"# c #6E977D",
"$ c #6F987D",
"% c #759277",
"& c #77937B",
"* c #78947B",
"= c #739B7F",
"- c #7C9D78",
"; c #7FA379",
": c #879F75",
"> c #819C7D",
", c #87A075",
"< c #88A075",
"1 c #83A77D",
"2 c #83A87D",
"3 c #97AF73",
"4 c #90B077",
"5 c #98B075",
"6 c #9FBB76",
"7 c #A6BC72",
"8 c #A8BE72",
"9 c #ADC371",
"0 c #B2C771",
"q c #B2CA72",
"w c #BBCF70",
"e c #BCD070",
"r c #BDD270",
"t c #C0D470",
"y c #C2D570",
"u c #C4D870",
"i c #6D8A80",
"p c #728F81",
"a c #719780",
"s c #749D81",
"d c #789F80",
"f c #7FA684",
"g c #80A784",
"h c #84AA87",
"j c #89AE86",
"k c #88AC89",
"l c #8DB38A",
"z c #90B58B",
"x c #97BB8E",
"c c #99BD8F",
"v c #9CBE8F",
"b c #9DC090",
"n c #A3C692",
"m c #ACC993",
"M c #B5D697",
"N c #C0DF9A",
"B c #C7E59C",
/* pixels */
"tttttttttttttttttttttttttttttttttttttttttttttttttttttttttttttttt",
"tttttttttttttttttttttttttttttttttttttttttttttttttttttttttttttttt",
"tttttttttttttttttttttttttttttttttttttttttttttttttttttttttttttttt",
"tttttttttttttttttttttttttttttttttttttttttttttttttttttttttttttttt",
"tttttttttttttttttttttttttttttttttttttttttttttttttttttttttttttttt",
"tttttttttttttttttttttttttttttttttttttttttttttttttttttttttttttttt",
"tttttttttttttttttttttttttttttttttttttttttttttttttttttttttttttttt",
"tttttttttttttttttttttttttttttttttttttttttttttttttttttttttttttttt",
"tttttttttttttttttttttttttttttttttttttttttttttttttttttttttttttttt",
"tttttttttttttttttttttttttttttttttttttttttttttttttttttttttttttttt",
"tttttttttttttttttttttttttttttttttttttttttttttttttttttttttttttttt",
"tttttttttttttttttttttttttttttttttttttttttttttttttttttttttttttttt",
"tttttttttttttttttttttttttttttttttttttttttttttttttttttttttttttttt",
"tttttttttttttttttttttttttttttttttttttttttttttttttttttttttttttttt",
"tttttttttttttttttttttttttttttttttttttttttttttttttttttttttttttttt",
"tttttttttttttttttttttttttttttttttttttttttttttttttttttttttttttttt",
"tttttttttttttttttttttttttttttttttttttttttttttttttttttttttttttttt",
"tttttttttttttttttttttttttttttttttttttttttttttttttttttttttttttttt",
"tttttttttttttttttttttttttttttttttttttttttttttttttttttttttttttttt",
"tttttttttttttttttttttttttttttttttttttttttttttttttttttttttttttttt",
"tttttttttttttttttttttttttttttttttttttttttttttttttttttttttttttttt",
"tttttttttttttttttttttttttttttttttttttttttttttttttttttttttttttttt",
"tttttttttttttttttttttttttttttttttttttttttttttttttttttttttttttttt",
"tttttttttttttttttttttttttttttttttttttttttttttttttttttttttttttttt",
"tttttttttttttttttttttttttttttttttttttttttttttttttttttttttttttttt",
"tttttttttttttttttttttttttttttttttttttttttttttttttttttttttttttttt",
"tttttttttttttttttttttttttttttttttttttttttttttttttttttttttttttttt",
"tttttttttttttttttttttttttttttttttttttttttttttttttttttttttttttttt",
"tttttttttttttttttttttttttttttttttttttttttttttttttttttttttttttttt",
"tttttttttttttttttttttttttttttttttttttttttttttttttttttttttttttttt",
"tttttttttttttttttttttttttttttttttttttttttttttttttttttttttttttttt",
"tttttttttttttttttttw987779wtttttttttttte977779wttttttttttttttttt",
"ttttttttttttttttttt9<@@@@:0tttttttttttt0:@@@@<9ttttttttttttttttt",
"ttttttttttttttttttt8@ +aa>50etttttttte05>aa+ @8ttttttttttttttttt",
"ttttttttttttttttttt7@+zmmc>:9uttttttu9:>cmmz+@7ttttttttttttttttt",
"ttttttttttttttttttt7@amBNnd&3888888885&dnBBma@7ttttttttttttttttt",
"ttttttttttttttttttt7@amNmclg*@@@@%%@@*glcmBma@7ttttttttttttttttt",
"ttttttttttttttttttt9<>cnccclaXX      +kcccnc><9ttttttttttttttttt",
"ttttttttttttttttttte05>dlccxkg&+++++O=lccld>50ettttttttttttttttt",
"tttttttttttttttw988893@+gllllh=######=hllg+@3989wttttttttttttttt",
"ttttttttttttttt9<@@@@@+#=sssf=$######==sd=#+@@@<9ttttttttttttttt",
"ttttttttttttttt7@ ip++s=$####$=ss=########=s+X @8ttttttttttttttt",
"ttttttttttttttt7@iznzklh=####=hllh=######=hlkdX@8ttttttttttttttt",
"ttttttttttttttt7@pnMnccls####dlcczf=$###=gzcbko@7ttttttttttttttt",
"ttttttttttttttt7@+znbccl=####slccxzh=##=hzxccko@7ttttttttttttttt",
"ttttttttttttttt9,*gkllxzg=$##=hzxccld##slxzlkg*:9ttttttttttttttt",
"ttttttttttttttte95&+afzxzh=##$=fzccld##flzfa+*50ettttttttttttttt",
"ttttttttttttttttt9:%-2jllh=####=hllh=##shj2-%:0ttttttttttttttttt",
"tttttttttttttttttw98961sss######=ss=####s16989ettttttttttttttttt",
"tttttttttttttttttttttq4;;111111111111111;4qttttttttttttttttttttt",
"ttttttttttttttttttttteq999999999999999999qettttttttttttttttttttt",
"tttttttttttttttttttttttttttttttttttttttttttttttttttttttttttttttt",
"tttttttttttttttttttttttttttttttttttttttttttttttttttttttttttttttt",
"tttttttttttttttttttttttttttttttttttteetetttttttttttttttttttttttt",
"tttttttttttttttttttttttttttttttttttttttttttttttttttttttttttttttt",
"tttttttttttttttttttttttttttttttttttttttttttttttttttttttttttttttt",
"tttttttttttttttttttttttttttttttttttttttttttttttttttttttttttttttt",
"tttttttttttttttttttttttttttttttttttttttttttttttttttttttttttttttt",
"tttttttttttttttttttttttttttttttttttttttttttttttttttttttttttttttt",
"tttttttttttttttttttttttttttttttttttttttttttttttttttttttttttttttt",
"tttttttttttttttttttttttttttttttttttttttttttttttttttttttttttttttt",
"tttttttttttttttttttttttttttttttttttttttttttttttttttttttttttttttt",
"tttttttttttttttttttttttttttttttttttttttttttttttttttttttttttttttt",
"tttttttttttttttttttttttttttttttttttttttttttttttttttttttttttttttt"
};
