/* XPM */
static char *trap_2[] = {
/* columns rows colors chars-per-pixel */
"64 64 114 2 ",
"   c #5D7B79",
".  c #627D78",
"X  c #707977",
"o  c #73787B",
"O  c #9D7D74",
"+  c #B17E73",
"@  c #F46657",
"#  c #F36C5D",
"$  c #F36F60",
"%  c #5E8079",
"&  c #6E8977",
"*  c #69877F",
"=  c #668B7B",
"-  c #6B8B7E",
";  c #728777",
":  c #738D77",
">  c #6C957C",
",  c #6F987D",
"<  c #769177",
"1  c #78947B",
"2  c #7C9D78",
"3  c #7EA379",
"4  c #82827E",
"5  c #879F75",
"6  c #B38073",
"7  c #B59472",
"8  c #87A075",
"9  c #8DAE77",
"0  c #83A87D",
"q  c #95AD74",
"w  c #8FB077",
"e  c #90B177",
"r  c #99B275",
"t  c #9EBB76",
"y  c #A4A973",
"u  c #BCAA76",
"i  c #A7BD72",
"p  c #A8BE72",
"a  c #BBB770",
"s  c #BCBA70",
"d  c #EF867A",
"f  c #ACC472",
"g  c #AFC872",
"h  c #B0C571",
"j  c #BDC170",
"k  c #B1C972",
"l  c #BECF70",
"z  c #BBD071",
"x  c #C0D470",
"c  c #C2D870",
"v  c #A57780",
"b  c #BD7783",
"n  c #BC7884",
"m  c #BF7E89",
"M  c #C07F8A",
"N  c #6D8A80",
"B  c #7D8584",
"V  c #718F81",
"C  c #7F8B86",
"Z  c #749581",
"A  c #7F9085",
"S  c #759D80",
"D  c #7A9F82",
"F  c #7DA483",
"G  c #808683",
"H  c #808F86",
"J  c #819086",
"K  c #98938F",
"L  c #BE8D83",
"P  c #AF9F97",
"I  c #BB9696",
"U  c #B09F97",
"Y  c #82A486",
"T  c #85AB86",
"R  c #89AF86",
"E  c #87AB88",
"W  c #8EB28A",
"Q  c #91B58B",
"!  c #96BA8E",
"~  c #9ABE8F",
"^  c #CF958A",
"/  c #CA8E92",
"(  c #CC9397",
")  c #EE988C",
"_  c #F49D8E",
"`  c #F99B8A",
"'  c #EC9F94",
"]  c #F49F90",
"[  c #C9A199",
"{  c #DAA09F",
"}  c #ECA095",
"|  c #F3A698",
" . c #F2A99C",
".. c #C6A7A0",
"X. c #C8A7A1",
"o. c #C7A8A1",
"O. c #CCAAA3",
"+. c #D6ACA4",
"@. c #DEA8A4",
"#. c #EAAFA5",
"$. c #EBB0A6",
"%. c #E3B6AE",
"&. c #E9B6AC",
"*. c #E7B8AF",
"=. c #E4BDB4",
"-. c #EBBDB2",
";. c #9DC090",
":. c #A3C491",
">. c #B5D697",
",. c #EFC8B9",
"<. c #F1CDBD",
"1. c #F5D7C4",
"2. c #F6D8C5",
"3. c #F7DDC8",
/* pixels */
"x x x x x x x x x x x x x x x x x x x x x x x x x x x x x x x x x x x x x x x x x x x x x x x x x x x x x x x x x x x x x x x x ",
"x x x x x x x x x x x x x x x x x x x x x x x x x x x x x x x x x x x x x x x x x x x x x x x x x x x x x x x x x x x x x x x x ",
"x x x x x x x x x x x x x x x x x x x x x x x x x x x x x x x x x x x x x x x x x x x x x x x x x x x x x x x x x x x x x x x x ",
"x x x x x x x x x x x x x x x x x x x x x x x x x x x x x x x x x x x x x x x x x x x x x x x x x x x x x x x x x x x x x x x x ",
"x x x x x x x x x x x x x x x x x x x x x x x x x x x x x x x x x x x x x x x x x x x x x x x x x x x x x x x x x x x x x x x x ",
"x x x x x x x x x x x x x x x x x x x x x x x x x x x x x x x x x x x x x x x x x x x x x x x x x x x x x x x x x x x x x x x x ",
"x x x x x x x x x x x x x x x x x x x x x x x x x x x x x x x x x x x x x x x x x x x x x x x x x x x x x x x x x x x x x x x x ",
"x x x x x x x x x x x x x x x x x x x x x x x x x x x x x x x x x x x x x x x x x x x x x x x x x x x x x x x x x x x x x x x x ",
"x x x x x x x x x x x x x x x x x x x x x x x x x x x x x x x x x x x x x x x x x x x x x x x x x x x x x x x x x x x x x x x x ",
"x x x x x x x x x x x x x x x x x x x x x x x x x x x x x x x x x x x x x x x x x x x x x x x x x x x x x x x x x x x x x x x x ",
"x x x x x x x x x x x x x x x x x x x x x x x x x x x x x x x x x x x x x x x x x x x x x x x x x x x x x x x x x x x x x x x x ",
"x x x x x x x x x x x x x x x x x x x x x x x x x x x x x x x x x x x x x x x x x x x x x x x x x x x x x x x x x x x x x x x x ",
"x x x x x x x x x x x x x x x x x x x x x x x x x x x x x x x x x x x x x x x x x x x x x x x x x x x x x x x x x x x x x x x x ",
"x x x x x x x x x x x x x x x x x x x x x x x x x x x x x x x x x x x x x x x x x x x x x x x x x x x x x x x x x x x x x x x x ",
"x x x x x x x x x x x x x x x x x x x x x x x x x x x x x x x x x x x x x x x x x x x x x x x x x x x x x x x x x x x x x x x x ",
"x x x x x x x x x x x x x x x x x x x x x x x l j a a s l x x x x x x x x l s a a s l x x x x x x x x x x x x x x x x x x x x x ",
"x x x x x x x x x x x x x x x x x x x x x x c j 7 + + 7 j c x x x x x x c j 7 + + 7 j c x x x x x x x x x x x x x x x x x x x x ",
"x x x x x x x x x x x x x x x x x x x x x l j u L m M L u j l x x x x l j u L m m L u j l x x x x x x x x x x x x x x x x x x x ",
"x x x x x x x x x x x x x x x x x x x x x s 7 L +.=.=.+.L 7 j c c c c j 7 L +.=.=.+.L 7 j x x x x x x x x x x x x x x x x x x x ",
"x x x x x x x x x x x x x x x x x x x x x a + m =.3.2.=.( L u s s s s u L ( =.2.3.=.M + s x x x x x x x x x x x x x x x x x x x ",
"x x x x x x x x x x x x x x x x x x x x x s + L =.1.,.-.=.+.L + + + + L +.=.-.,.1.=.m + s x x x x x x x x x x x x x x x x x x x ",
"x x x x x x x x x x x x x x x x x x x x x s + m %.<.-.-.<.=./ b b b b / =.<.-.-.<.%.m + s x x x x x x x x x x x x x x x x x x x ",
"x x x x x x x x x x x x x x x x x x x x x s 6 n @.-.*.&.-.*.@.{ { { { @.*.-.&.*.-.@.n + s x x x x x x x x x x x x x x x x x x x ",
"x x x x x x x x x x x x x x x x x x x x x s 6 b { &.&.&.&.&.&.&.&.&.&.&.&.&.&.&.&.{ b + s x x x x x x x x x x x x x x x x x x x ",
"x x x x x x x x x x x x x x x x x x x x x s + b { &.&.&.&.&.&.&.&.&.&.&.&.&.&.&.&.{ n 6 s x x x x x x x x x x x x x x x x x x x ",
"x x x x x x x x x x x x x x x z k f f k z s 6 b { &.*.&.&.&.&.&.&.&.&.&.&.&.&.&.&.{ n 6 s x x x x x x x x x x x x x x x x x x x ",
"x x x x x x x x x x x x x x x k w 3 3 e k s 6 b { &.*.%.&.&.&.&.&.&.&.&.&.&.&.*.*.{ n 6 s x x x x x x x x x x x x x x x x x x x ",
"x x x x x x x x x x x x x x x k w 2 > 3 f s 6 n @.#.' ' #.&.&.&.&.&.&.&.&.#.' ' #.@.n 6 s x x x x x x x x z g g z x x x x x x x ",
"x x x x x x x x x x x x x x x z k r 2 3 f s 6 n @.' $ $ } =.&.&.&.&.&.&.-.} $ $ ' @.n + s x x x x x x x x g 9 9 g x x x x x x x ",
"x x x x x x x x x x x x x x x x x k w w k s 6 n @.} $ @ d } #.%.%.&.&.#.} d @ $ } @.n + s x x x x x x x x g 9 9 g x x x x x x x ",
"x x x x x x x x x x x x x x x x x z k k z s + b @.$.} d @ $ ' *.%.%.*.' $ @ d } $.{ n + s x x x x x x x x z k k z x x x x x x x ",
"x x x x x x x x x x x x x x x x x x x x c s + b @.-.-.} $ # ) $.#.#.$.) # $ } -.-.{ b + s c x x x x x x x x x x x x x x x x x x ",
"x x x x x x x x x x x x x x x x x x x x c s 6 b @.-.-.$.' ) _ _ ] ] _ _ ) ' $.-.*.@.b + s c x x x x x x x x x x x x x x x x x x ",
"x x x x x x x x x x x x x x x x x x x z f y O v I ....O.%.&.| _ ` ` _ | &.%.O.....I v O y f z x x x x z k k z x x x x x x x x x ",
"x x x x x x x x x x x x x x x x x x x f 8 ; X o B B B K +.&.&. .` `  .&.*.+.K B B B o X ; 8 f x x x x k 9 9 g x x x x x x x x x ",
"x x x x x x x x x x x x x x x x x x x p :   = - - * = C P X.o.[ ^ ^ [ o.O.U A * * - - =   : p x x x x k 9 9 g x x x x x x x x x ",
"x x x x x x x x x x x x x x x x x x x p : = D E E E E Y H B B G 4 4 G C B J Y E E E E D = : p x x x x z g g z x x x x x x x x x ",
"x x x x x x x x x x x x x x x x x x x p : = D W ! ~ ~ W Z = =   % % %     - E ~ ~ ! W D = : p x x x x x x x x x x x x x x x x x ",
"x x x x x x x x x x x x x x x x x x c p :   = Z W ~ ~ ! W Y > * * - - * * 2 W ~ ~ W A =   : f c x x x x x x x x x x x x x x x x ",
"x x x x x x x x x x x x x x x l f p p q &     - Y W W W W T 2 > > > > > > 2 T W W Y -     & q h z x x x x x x x x x x x x x x x ",
"x x x x x x x x x x x x x x x f 8 : : & .   = > 2 S S S F 2 , > > > > > > , S F D 2 > *   . - 8 f x x x x x x x x x x x x x x x ",
"x x x x x x x x x x x x x x x i :   N Z - - S 2 , > > > > , S S S S , > > > > > > , S S N =   : p x x x x x x x x x x x x x x x ",
"x x x x x x x x x x x x x x x i : N Q :.Q E W T S > > > > 2 T W W T 2 > > > > > > 2 T W E D = : p x x x x x x x x x x x x x x x ",
"x x x x x x x x x x x x x x x i : V :.>.:.~ ~ W S > > > > S W ~ ~ Q F 2 , > > > 2 Y Q ~ ~ E * : i x x x x x x x x x x x x x x x ",
"x x x x x x x x x x x x x x x i : - Q :.;.~ ~ W S > > > > S W ~ ~ ! Q T 2 > > 2 T Q ! ~ ~ E * : i x x x x x x x x x x x x x x x ",
"x x x x x x x x x x x x x x x f 8 1 Y E W W ! Q Y 2 , > > 2 T W ! ~ ~ W S > > S W ! Q E E Y 1 5 f x x x x x x x x x x x x x x x ",
"x x x x x x x x x x x x x x x z f r 1 - Z F W ! Q T S > > , 2 F Q ~ ~ W S > > F W Q F Z - 1 r h z x x x x x x x x x x x x x x x ",
"x x x x x x x x x x x x x x x x x f 5 < 2 0 R W W T S > > > > 2 T W W T 2 > > S T R 0 2 < 5 h x x x x x x x x x x x x x x x x x ",
"x x x x x x x x x x x x x x x x x l f p f t 0 S S S > > > > > > S S S 2 > > > > S 0 t f p f z x x x x x x x x x x x x x x x x x ",
"x x x x x x x x x x x x x x x x x x x x x k e 3 3 0 0 0 0 0 0 0 0 0 0 0 0 0 0 0 3 e k x x x x x x x x x x x x x x x x x x x x x ",
"x x x x x x x x x x x x x x x x x x x x x z k f f f f f f f f f f f f f f f f f f k z x x x x x x x x x x x x x x x x x x x x x ",
"x x x x x x x x x x x x x x x x x x x x x x x x x x x x x x x x x x x x x x x x x x x x x x x x x x x x x x x x x x x x x x x x ",
"x x x x x x x x x x x x x x x x x x x x x x x x x x x x x x x x x x x x x x x x x x x x x x x x x x x x x x x x x x x x x x x x ",
"x x x x x x x x x x x x x x x x x x x x x x x x x x x x x x x x x x x x l x x x x x x x x x x x x x x x x x x x x x x x x x x x ",
"x x x x x x x x x x x x x x x x x x x x x x x x x x x x x x x x x x x x x x x x x x x x x x x x x x x x x x x x x x x x x x x x ",
"x x x x x x x x x x x x x x x x x x x x x x x x x x x x x x x x x x x x x x x x x x x x x x x x x x x x x x x x x x x x x x x x ",
"x x x x x x x x x x x x x x x x x x x x x x x x x x x x x x x x x x x x x x x x x x x x x x x x x x x x x x x x x x x x x x x x ",
"x x x x x x x x x x x x x x x x x x x x x x x x x x x x x x x x x x x x x x x x x x x x x x x x x x x x x x x x x x x x x x x x ",
"x x x x x x x x x x x x x x x x x x x x x x x x x x x x x x x x x x x x x x x x x x x x x x x x x x x x x x x x x x x x x x x x ",
"x x x x x x x x x x x x x x x x x x x x x x x x x x x x x x x x x x x x x x x x x x x x x x x x x x x x x x x x x x x x x x x x ",
"x x x x x x x x x x x x x x x x x x x x x x x x x x x x x x x x x x x x x x x x x x x x x x x x x x x x x x x x x x x x x x x x ",
"x x x x x x x x x x x x x x x x x x x x x x x x x x x x x x x x x x x x x x x x x x x x x x x x x x x x x x x x x x x x x x x x ",
"x x x x x x x x x x x x x x x x x x x x x x x x x x x x x x x x x x x x x x x x x x x x x x x x x x x x x x x x x x x x x x x x ",
"x x x x x x x x x x x x x x x x x x x x x x x x x x x x x x x x x x x x x x x x x x x x x x x x x x x x x x x x x x x x x x x x "
};
