/* XPM */
static char *wall_dr[] = {
/* columns rows colors chars-per-pixel */
"32 32 6 1 ",
"  c #754C60",
". c #8E5E28",
"X c #894039",
"o c #C39A6C",
"O c #C0D470",
"+ c #DCB98A",
/* pixels */
"OOOOOOOOOOOOOOOOOOOOOOOO ooooo  ",
"OOOOOOOOOOOOOOOOOOOOOOOO ooooo  ",
"OOOOOOOOOOOOOOOOOOOOOOOOXooooo  ",
"oooooooooooooooooooooooooooooo  ",
"oooooooooooooooooooooooooooooo  ",
"oooooooooooooooooooooooooooooo  ",
"oooooooooooooooooooooooooooooo  ",
"oooooooooooooooooooooooooooooo  ",
"++++++++++++++++++++++++++++++  ",
"++++++++++++++++++++++++++++++  ",
"..............................  ",
"..............................  ",
"..............................  ",
"..............................  ",
"..............................  ",
"..............................  ",
"XXXXXXXXXXXXXXXXXXXXXXXXXXXXXX  ",
"..............................  ",
"..............................  ",
"..............................  ",
"..............................  ",
"..............................  ",
"..............................  ",
"XXXXXXXXXXXXXXXXXXXXXXXXXXXXXX  ",
"..............................  ",
"..............................  ",
"..............................  ",
"..............................  ",
"..............................  ",
"..............................  ",
"                                ",
"                                "
};
