/* XPM */
static char *wall_cc[] = {
/* columns rows colors chars-per-pixel */
"32 32 6 1 ",
"  c #90625D",
". c #B68962",
"X c #C49A6C",
"o c #C0D470",
"O c #DCB98A",
"+ c #E8CFA6",
/* pixels */
"oooooooooooooooooooooooooooooooo",
"oooooooooooooooooooooooooooooooo",
"oooooooooooooooooooooooooooooooo",
"oooooooooooooooooooooooooooooooo",
"oooooooooooooooooooooooooooooooo",
"oooooooooooooooooooooooooooooooo",
"oooooooooooooooooooooooooooooooo",
"oooooooooooooooooooooooooooooooo",
"oooooooooooooooooooooooooooooooo",
"oooooooooooooooooooooooooooooooo",
"oooooooooooooooooooooooooooooooo",
"oooooooooooooo    oooooooooooooo",
"ooooooooooooo OOOO ooooooooooooo",
"oooooooooooo OOOOOO oooooooooooo",
"oooooooooooo +OOOO+ oooooooooooo",
"oooooooooooo .++++. oooooooooooo",
"oooooooooooo ...... oooooooooooo",
"oooooooooooo .X.XXX oooooooooooo",
"ooooooooooo XXXXXXXX ooooooooooo",
"ooooooooooooXXXXXXXXoooooooooooo",
"oooooooooooooooXXooooooooooooooo",
"oooooooooooooooooooooooooooooooo",
"oooooooooooooooooooooooooooooooo",
"oooooooooooooooooooooooooooooooo",
"oooooooooooooooooooooooooooooooo",
"oooooooooooooooooooooooooooooooo",
"oooooooooooooooooooooooooooooooo",
"oooooooooooooooooooooooooooooooo",
"oooooooooooooooooooooooooooooooo",
"oooooooooooooooooooooooooooooooo",
"oooooooooooooooooooooooooooooooo",
"oooooooooooooooooooooooooooooooo"
};
