/* XPM */
static const char *wall_cl[] = {
/* columns rows colors chars-per-pixel */
"64 64 15 1 ",
"  c #72485F",
". c #865C63",
"X c #885F63",
"o c #856B64",
"O c #876D64",
"+ c #AF8569",
"@ c #B08769",
"# c #ADB26C",
"$ c #AEB36C",
"% c #C39A6C",
"& c #C49B6C",
"* c #C59C6C",
"= c #C0D470",
"- c #C1D670",
"; c #C2D770",
/* pixels */
"===========================================$O  X@*&%%%%&*+.o$===",
"===========================================$O  X@*&%%%%&*+.o$===",
"===========================================$O  X@*&%%%%&*+.o$===",
"===========================================$O  X@*&%%%%&*+.o$===",
"==========================================;$O  X@*&%%%%&*+.o$===",
"==========================================;$O  X@*&%%%%&*+.o$===",
"==========================================;$O  X@*&%%%%&*+.O$;==",
"==========================================;$O  X@*&%%%%&*+.o$===",
"===========================================$O  X@*&%%%%&*+.o$===",
"===========================================$O  X@*&%%%%&*+.o$;==",
"===========================================$O  X@*&%%%%&*+.o$;==",
"===========================================$O  X@*&%%%%&*+.o$===",
"==========================================;$O  X@*&%%%%&*+.o$===",
"==========================================;$O  X@*&%%%%&*+.o$===",
"==========================================;$O  X@*&%%%%&*+.o$===",
"==========================================;$O  X@*&%%%%&*+.o$===",
"===========================================$O  X@*&%%%%&*+.o$===",
"===========================================$O  X@*&%%%%&*+.o$===",
"===========================================$O  X@*&%%%%&*+.o$;==",
"===========================================$O  X@*&%%%%&*+.o$===",
"==========================================;$O  X@*&%%%%&*+.o$===",
"==========================================;$O  X@*&%%%%&*+.o$;==",
"==========================================;$O  X@*&%%%%&*+.o$;==",
"==========================================;$O  X@*&%%%%&*+.o$===",
"===========================================$O  X@*&%%%%&*+.o$===",
"===========================================$O  X@*&%%%%&*+.o$===",
"===========================================$O  X@*&%%%%&*+.o$===",
"===========================================$O  X@*&%%%%&*+.o$===",
"==========================================;$O  X@*&%%%%&*+.o$===",
"==========================================;$O  X@*&%%%%&*+.o$===",
"==========================================;$O  X@*&%%%%&*+.O$;==",
"==========================================;$O  X@*&%%%%&*+.o$===",
"===========================================$O  X@*&%%%%&*+.o$===",
"===========================================$O  X@*&%%%%&*+.o$;==",
"===========================================$O  X@*&%%%%&*+.o$;==",
"===========================================$O  X@*&%%%%&*+.o$===",
"===========================================$O  X@*&%%%%&*+.o$===",
"===========================================$O  X@*&%%%%&*+.o$===",
"===========================================$O  X@*&%%%%&*+.o$===",
"===========================================$O  X@*&%%%%&*+.o$===",
"==========================================;$O  X@*&%%%%&*+.o$===",
"==========================================;$O  X@*&%%%%&*+.o$===",
"==========================================;$O  X@*&%%%%&*+.o$;==",
"==========================================;$O  X@*&%%%%&*+.o$===",
"===========================================$O  X@*&%%%%&*+.o$===",
"===========================================$O  X@*&%%%%&*+.o$;==",
"===========================================$O  X@*&%%%%&*+.o$;==",
"===========================================$O  X@*&%%%%&*+.o$===",
"==========================================;$O  X@*&%%%%&*+.o$===",
"==========================================;$O  X@*&%%%%&*+.o$===",
"==========================================;$O  X@*&%%%%&*+.o$===",
"==========================================;$O  X@*&%%%%&*+.o$===",
"===========================================$O  X@*&%%%%&*+.o$===",
"===========================================$O  X@*&%%%%&*+.o$===",
"===========================================$O  X@*&%%%%&*+.O$;==",
"===========================================$O  X@*&%%%%&*+.o$===",
"===========================================$O  X@*&%%%%&*+.o$===",
"===========================================$O  X@*&%%%%&*+.o$;==",
"===========================================$O  X@*&%%%%&*+.o$;==",
"===========================================$O  X@*&%%%%&*+.o$===",
"==========================================;$O  X@*&%%%%&*+.o$===",
"==========================================;$O  X@*&%%%%&*+.o$===",
"==========================================;$O  X@*&%%%%&*+.o$===",
"==========================================;$O  X@*&%%%%&*+.o$==="
};
