/* XPM */
static const char *wall_dr[] = {
/* columns rows colors chars-per-pixel */
"64 64 112 2 ",
"   c #7A4B56",
".  c #7B4E54",
"X  c #7A4F56",
"o  c #71475F",
"O  c #72475F",
"+  c #72485F",
"@  c #764D5D",
"#  c #7B5052",
"$  c #7B5152",
"%  c #734860",
"&  c #734960",
"*  c #734961",
"=  c #734A61",
"-  c #744A60",
";  c #754C60",
":  c #744C61",
">  c #754C61",
",  c #8D5C24",
"<  c #8D5C25",
"1  c #8D5D25",
"2  c #8F5F25",
"3  c #8C5C26",
"4  c #8D5D26",
"5  c #8D5D27",
"6  c #8F5F26",
"7  c #8E5E27",
"8  c #8F5E27",
"9  c #8E5F27",
"0  c #8D572B",
"q  c #8D562C",
"w  c #8E5E28",
"e  c #8E5F28",
"r  c #8B4634",
"t  c #8A4635",
"y  c #8A4735",
"u  c #875834",
"i  c #875934",
"p  c #885A35",
"a  c #885A36",
"s  c #875439",
"d  c #A1753F",
"f  c #A2753F",
"g  c #854840",
"h  c #835640",
"j  c #805658",
"k  c #966A47",
"l  c #A17440",
"z  c #855A62",
"x  c #855B62",
"c  c #865C63",
"v  c #885F63",
"b  c #896164",
"n  c #896165",
"m  c #846A63",
"M  c #856B64",
"N  c #876D64",
"B  c #8C6468",
"V  c #8E676B",
"C  c #956B65",
"Z  c #947666",
"A  c #AF8569",
"S  c #B08769",
"D  c #B48A6A",
"F  c #B48B6A",
"G  c #B48F6A",
"H  c #B58D6F",
"J  c #B58E6E",
"K  c #BE956B",
"L  c #BF997A",
"P  c #BEA06C",
"I  c #B2AC6C",
"U  c #ACB26C",
"Y  c #ADB26C",
"T  c #ACB36C",
"R  c #AEB36C",
"E  c #C2996B",
"W  c #C49A6B",
"Q  c #C3996C",
"!  c #C39A6C",
"~  c #C4996C",
"^  c #C49B6C",
"/  c #C59C6C",
"(  c #C2A86D",
")  c #C3A86D",
"_  c #C3A96D",
"`  c #C9A173",
"'  c #C9A372",
"]  c #CAA473",
"[  c #CBA573",
"{  c #CAA374",
"}  c #CBA374",
"|  c #C1C66F",
" . c #C2C76F",
".. c #C2C86F",
"X. c #C0D470",
"o. c #C0D570",
"O. c #C1D670",
"+. c #C1D770",
"@. c #C2D770",
"#. c #C2D870",
"$. c #C2D970",
"%. c #C4A081",
"&. c #C5A182",
"*. c #D6B283",
"=. c #D7B383",
"-. c #D8B484",
";. c #DEBB8C",
":. c #DEBC8D",
">. c #DFBD8D",
",. c #E0BD8D",
"<. c #E0BE8D",
"1. c #E1BE8E",
/* pixels */
"X.X.X.U M c A / ^ ! ! ! ! ^ / S v % + N U #.X.X.X.X.X.X.X.X.X.X.X.X.X.X.X.X.X.X.X.X.X.X.X.X.X.X.X.X.X.X.X.X.X.X.X.X.X.X.X.X.X.X.",
"X.X.X.U M c A / ^ ! ! ! ! ^ / S v % + N R #.X.X.X.X.X.X.X.X.X.X.X.X.X.X.X.X.X.X.X.X.X.X.X.X.X.X.X.X.X.X.X.X.X.X.X.X.X.X.X.X.X.X.",
"X.X.X.U M c A / ^ ! ! ! ! ^ / S v + + N R #.X.X.X.X.X.X.X.X.X.X.X.X.X.X.X.X.X.X.X.X.X.X.X.X.X.X.X.X.X.X.X.X.X.X.X.X.X.X.X.X.X.X.",
"X.X.#.U m x A / ^ ! ! ! ! ^ / S v + + N R #.X.X.X.X.X.X.X.X.X.X.X.X.X.X.X.X.X.X.X.X.X.X.X.X.X.X.X.X.X.X.X.X.X.X.X.X.X.X.X.X.X.X.",
"X.X.#.U m x A / ^ ! ! ! ! ^ / S v + + N U X.X.X.X.X.X.X.X.X.X.X.X.X.X.X.X.X.X.X.X.X.X.X.X.X.X.X.X.X.X.X.X.X.X.X.X.X.X.X.X.X.X.X.",
" . ...I Z C D / ^ ! ! ! ! ^ / S v + + N U X.X.X.X.X.X.X.X.X.X.X.X.X.X.X.X.X.X.X.X.X.X.X.X.X.X.X.X.X.X.X.X.X.X.X.X.X.X.X.X.X.X.X.",
"_ _ _ P G D K ! ! ! ! ! ! ^ / S v + + N U X.X.X.X.X.X.X.X.X.X.X.X.X.X.X.X.X.X.X.X.X.X.X.X.X.X.X.X.X.X.X.X.X.X.X.X.X.X.X.X.X.X.X.",
"! ! ! ! ^ / ^ ! ! ! ! ! ! ^ / S v + + N U X.X.X.X.X.X.X.X.X.X.X.X.X.X.X.X.X.X.X.X.X.X.X.X.X.X.X.X.X.X.X.X.X.X.X.X.X.X.X.X.X.X.X.",
"! ! ! ! ^ ^ ! ! ! ! ! ! ! ^ / S v + + N R #.X.X.X.X.X.X.X.X.X.X.X.X.X.X.X.X.X.X.X.X.X.X.X.X.X.X.X.X.X.X.X.X.X.X.X.X.X.X.X.X.X.X.",
"! ! ! ! ! ! ! ! ! ! ! ! ! ^ / S v + + N R #.X.X.X.X.X.X.X.X.X.X.X.X.X.X.X.X.X.X.X.X.X.X.X.X.X.X.X.X.X.X.X.X.X.X.X.X.X.X.X.X.X.X.",
"! ! ! ! ! ! ! ! ! ! ! ! ! ^ / S v + + N R #.X.X.X.X.X.X.X.X.X.X.X.X.X.X.X.X.X.X.X.X.X.X.X.X.X.X.X.X.X.X.X.X.X.X.X.X.X.X.X.X.X.X.",
"! ! ! ! ! ! ! ! ! ! ! ! ! ^ / S v + % N R #.X.X.X.X.X.X.X.X.X.X.X.X.X.X.X.X.X.X.X.X.X.X.X.X.X.X.X.X.X.X.X.X.X.X.X.X.X.X.X.X.X.X.",
"! ! ! ! ! ! ! ! ! ! ! ! ! ^ / S v + + N U X.X.X.X.X.X.X.X.X.X.X.X.X.X.X.X.X.X.X.X.X.X.X.X.X.X.X.X.X.X.X.X.X.X.X.X.X.X.X.X.X.X.X.",
"! ! ! ! ! ! ! E ! ! ! ! ! ^ ^ S v % + N U X.X.X.X.X.X.X.X.X.X.X.X.X.X.X.X.X.X.X.X.X.X.X.X.X.X.X.X.X.X.X.X.X.X.X.X.X.X.X.X.X.X.X.",
"E E E E E E E E E E E E E W ^ S v + + N U X.X.X.X.X.X.X.X.X.X.X.X.X.X.X.X.X.X.X.X.X.X.X.X.X.X.X.X.X.X.X.X.X.X.X.X.X.X.X.X.X.X.X.",
"` ` ` ` ` ` ` ` ` ` ` ` ` { { H n + + N U X.X.X.X.X.X.X.X.X.X.X.X.X.X.X.X.X.X.X.X.X.X.X.X.X.X.X.X.X.X.X.X.X.X.X.X.X.X.X.X.X.X.X.",
"=.=.=.=.=.=.=.=.=.=.=.=.=.=.=.L B + o N R #.X.X.X.X.X.X.X.X.X.X.X.X.X.X.X.X.X.X.X.X.X.X.X.X.X.X.X.X.X.X.X.X.X.X.X.X.X.X.X.X.X.X.",
";.;.;.;.;.;.;.;.;.;.;.;.;.>.1.%.B o o N R #.X.X.X.X.X.X.X.X.X.X.X.X.X.X.X.X.X.X.X.X.X.X.X.X.X.X.X.X.X.X.X.X.X.X.X.X.X.X.X.X.X.X.",
">.>.;.;.;.>.;.;.>.>.;.;.;.1.1.%.B o o N R #.X.X.X.X.X.X.X.X.X.X.X.X.X.X.X.X.X.X.X.X.X.X.X.X.X.X.X.X.X.X.X.X.X.X.X.X.X.X.X.X.X.X.",
"` ` ` ` ` ` ` ` ` ` ` ` ` [ [ H n + + N R #.X.X.X.X.X.X.X.X.X.X.X.X.X.X.X.X.X.X.X.X.X.X.X.X.X.X.X.X.X.X.X.X.X.X.X.X.X.X.X.X.X.X.",
"l l l d l l l l l l l l l d d k j % % N U X.X.X.X.X.X.X.X.X.X.X.X.X.X.X.X.X.X.X.X.X.X.X.X.X.X.X.X.X.X.X.X.X.X.X.X.X.X.X.X.X.X.X.",
"6 6 6 6 3 3 3 3 6 6 6 6 6 6 6 i # % % N U X.X.X.X.X.X.X.X.X.X.X.X.X.X.X.X.X.X.X.X.X.X.X.X.X.X.X.X.X.X.X.X.X.X.X.X.X.X.X.X.X.X.X.",
"6 6 6 6 6 6 6 6 6 6 6 6 6 6 6 i # % % N U X.X.X.X.X.X.X.X.X.X.X.X.X.X.X.X.X.X.X.X.X.X.X.X.X.X.X.X.X.X.X.X.X.X.X.X.X.X.X.X.X.X.X.",
"w w w w w w w w w w w w w 6 6 p # % % N U X.X.X.X.X.X.X.X.X.X.X.X.X.X.X.X.X.X.X.X.X.X.X.X.X.X.X.X.X.X.X.X.X.X.X.X.X.X.X.X.X.X.X.",
"w w w w w w w w w w w w w 6 6 p # % % N R #.X.X.X.X.X.X.X.X.X.X.X.X.X.X.X.X.X.X.X.X.X.X.X.X.X.X.X.X.X.X.X.X.X.X.X.X.X.X.X.X.X.X.",
"w w w w w w w w w w w w w 6 6 p # % % N R #.X.X.X.X.X.X.X.X.X.X.X.X.X.X.X.X.X.X.X.X.X.X.X.X.X.X.X.X.X.X.X.X.X.X.X.X.X.X.X.X.X.X.",
"w w w w w w w w w w w w w 6 6 p # % % N R #.X.X.X.X.X.X.X.X.X.X.X.X.X.X.X.X.X.X.X.X.X.X.X.X.X.X.X.X.X.X.X.X.X.X.X.X.X.X.X.X.X.X.",
"w w w w w w w w w w w w w 6 6 p # % % N R #.X.X.X.X.X.X.X.X.X.X.X.X.X.X.X.X.X.X.X.X.X.X.X.X.X.X.X.X.X.X.X.X.X.X.X.X.X.X.X.X.X.X.",
"w w w w w w w w w w w w w 6 6 p # % % N U X.X.X.X.X.X.X.X.X.X.X.X.X.X.X.X.X.X.X.X.X.X.X.X.X.X.X.X.X.X.X.X.X.X.X.X.X.X.X.X.X.X.X.",
"w w w w w w w w w w w w w 6 6 p # % % N U X.X.X.X.X.X.X.X.X.X.X.X.X.X.X.X.X.X.X.X.X.X.X.X.X.X.X.X.X.X.X.X.X.X.X.X.X.X.X.X.X.X.X.",
"w w w w w w w w w w w w w 6 6 p # % % N U X.X.X.X.X.X.X.X.X.X.X.X.X.X.X.X.X.X.X.X.X.X.X.X.X.X.X.X.X.X.X.X.X.X.X.X.X.X.X.X.X.X.X.",
"q q q q q q q q q q q q q q 0 s . % % N U X.X.X.X.X.X.X.X.X.X.X.X.X.X.X.X.X.X.X.X.X.X.X.X.X.X.X.X.X.X.X.X.X.X.X.X.X.X.X.X.X.X.X.",
"y y y y y y y y y y y y y y y g   - % N U X.X.X.X.X.X.X.X.X.X.X.X.X.X.X.X.X.X.X.X.X.X.X.X.X.X.X.X.X.X.X.X.X.X.X.X.X.X.X.X.X.X.X.",
"y y y y y y y y y y y y y y y g   - % N U X.X.X.X.X.X.X.X.X.X.X.X.X.X.X.X.X.X.X.X.X.X.X.X.X.X.X.X.X.X.X.X.X.X.X.X.X.X.X.X.X.X.X.",
"q q q q q q q q q q q q q q 0 s . - % N U X.X.X.X.X.X.X.X.X.X.X.X.X.X.X.X.X.X.X.X.X.X.X.X.X.X.X.X.X.X.X.X.X.X.X.X.X.X.X.X.X.X.X.",
"w w w w w w w w w w w w w 6 6 p # % % N U X.X.X.X.X.X.X.X.X.X.X.X.X.X.X.X.X.X.X.X.X.X.X.X.X.X.X.X.X.X.X.X.X.X.X.X.X.X.X.X.X.X.X.",
"w w w w w w w w w w w w w 6 6 p # % % N R #.X.X.X.X.X.X.X.X.X.X.X.X.X.X.X.X.X.X.X.X.X.X.X.X.X.X.X.X.X.X.X.X.X.X.X.X.X.X.X.X.X.X.",
"w w w w w w w w w w w w w 6 6 p # % % N R #.X.X.X.X.X.X.X.X.X.X.X.X.X.X.X.X.X.X.X.X.X.X.X.X.X.X.X.X.X.X.X.X.X.X.X.X.X.X.X.X.X.X.",
"w w w w w w w w w w w w w 6 6 p # % % N R #.X.X.X.X.X.X.X.X.X.X.X.X.X.X.X.X.X.X.X.X.X.X.X.X.X.X.X.X.X.X.X.X.X.X.X.X.X.X.X.X.X.X.",
"w w w w w w w w w w w w w 6 6 p # - % N R #.X.X.X.X.X.X.X.X.X.X.X.X.X.X.X.X.X.X.X.X.X.X.X.X.X.X.X.X.X.X.X.X.X.X.X.X.X.X.X.X.X.X.",
"w w w w w w w w w w w w w 6 6 p # % % N U X.X.X.X.X.X.X.X.X.X.X.X.X.X.X.X.X.X.X.X.X.X.X.X.X.X.X.X.X.X.X.X.X.X.X.X.X.X.X.X.X.X.X.",
"w w w w w w w w w w w w w 6 6 p # % % N U X.X.X.X.X.X.X.X.X.X.X.X.X.X.X.X.X.X.X.X.X.X.X.X.X.X.X.X.X.X.X.X.X.X.X.X.X.X.X.X.X.X.X.",
"w w w w w w w w w w w w w 6 6 p # % % N R #.X.X.X.X.X.X.X.X.X.X.X.X.X.X.X.X.X.X.X.X.X.X.X.X.X.X.X.X.X.X.X.X.X.X.X.X.X.X.X.X.X.X.",
"w w w w w w w w w w w w w 6 6 p # % % N U X.X.X.X.X.X.X.X.X.X.X.X.X.X.X.X.X.X.X.X.X.X.X.X.X.X.X.X.X.X.X.X.X.X.X.X.X.X.X.X.X.X.X.",
"w w w w w w w w w w w w w 6 6 p # - % N U X.X.X.X.X.X.X.X.X.X.X.X.X.X.X.X.X.X.X.X.X.X.X.X.X.X.X.X.X.X.X.X.X.X.X.X.X.X.X.X.X.X.X.",
"q q q q q q q q q q q q q q 0 s . - % N U X.X.X.X.X.X.X.X.X.X.X.X.X.X.X.X.X.X.X.X.X.X.X.X.X.X.X.X.X.X.X.X.X.X.X.X.X.X.X.X.X.X.X.",
"y y y y y y y y y y y y y y y g   - % N U X.X.X.X.X.X.X.X.X.X.X.X.X.X.X.X.X.X.X.X.X.X.X.X.X.X.X.X.X.X.X.X.X.X.X.X.X.X.X.X.X.X.X.",
"y y y y y y y y y y y y y y y g   - % N R X.X.X.X.X.X.X.X.X.X.X.X.X.X.X.X.X.X.X.X.X.X.X.X.X.X.X.X.X.X.X.X.X.X.X.X.X.X.X.X.X.X.X.",
"q q q q q q q q q q q q q q 0 s . % % N U X.X.X.X.X.X.X.X.X.X.X.X.X.X.X.X.X.X.X.X.X.X.X.X.X.X.X.X.X.X.X.X.X.X.X.X.X.X.X.X.X.X.X.",
"w w w w w w w w w w w w w 6 6 p # % % N U X.X.X.X.X.X.X.X.X.X.X.X.X.X.X.X.X.X.X.X.X.X.X.X.X.X.X.X.X.X.X.X.X.X.X.X.X.X.X.X.X.X.X.",
"w w w w w w w w w w w w w 6 6 p # % % N R #.X.X.X.X.X.X.X.X.X.X.X.X.X.X.X.X.X.X.X.X.X.X.X.X.X.X.X.X.X.X.X.X.X.X.X.X.X.X.X.X.X.X.",
"w w w w w w w w w w w w w 6 6 p # % % N R #.X.X.X.X.X.X.X.X.X.X.X.X.X.X.X.X.X.X.X.X.X.X.X.X.X.X.X.X.X.X.X.X.X.X.X.X.X.X.X.X.X.X.",
"w w w w w w w w w w w w w 6 6 p # - % N R #.X.X.X.X.X.X.X.X.X.X.X.X.X.X.X.X.X.X.X.X.X.X.X.X.X.X.X.X.X.X.X.X.X.X.X.X.X.X.X.X.X.X.",
"w w w w w w w w w w w w w 6 6 p # - % N R #.X.X.X.X.X.X.X.X.X.X.X.X.X.X.X.X.X.X.X.X.X.X.X.X.X.X.X.X.X.X.X.X.X.X.X.X.X.X.X.X.X.X.",
"w w w w w w w w w w w w w 6 6 p # - % N U X.X.X.X.X.X.X.X.X.X.X.X.X.X.X.X.X.X.X.X.X.X.X.X.X.X.X.X.X.X.X.X.X.X.X.X.X.X.X.X.X.X.X.",
"w w w w w w w w w w w w w 6 6 p # - % N U X.X.X.X.X.X.X.X.X.X.X.X.X.X.X.X.X.X.X.X.X.X.X.X.X.X.X.X.X.X.X.X.X.X.X.X.X.X.X.X.X.X.X.",
"w w w w w w w w w w w w w 6 6 p # % % N R #.X.X.X.X.X.X.X.X.X.X.X.X.X.X.X.X.X.X.X.X.X.X.X.X.X.X.X.X.X.X.X.X.X.X.X.X.X.X.X.X.X.X.",
"6 6 6 6 6 6 6 6 6 6 6 6 6 6 6 p # % % N R #.X.X.X.X.X.X.X.X.X.X.X.X.X.X.X.X.X.X.X.X.X.X.X.X.X.X.X.X.X.X.X.X.X.X.X.X.X.X.X.X.X.X.",
"6 6 6 6 6 6 6 6 6 6 6 6 6 6 6 p # % % N R #.X.X.X.X.X.X.X.X.X.X.X.X.X.X.X.X.X.X.X.X.X.X.X.X.X.X.X.X.X.X.X.X.X.X.X.X.X.X.X.X.X.X.",
"p p p p p p p p p p p p p p p h . - % N R #.X.X.X.X.X.X.X.X.X.X.X.X.X.X.X.X.X.X.X.X.X.X.X.X.X.X.X.X.X.X.X.X.X.X.X.X.X.X.X.X.X.X.",
"# # # # # # # # # # # # # # # . @ - % N U X.X.X.X.X.X.X.X.X.X.X.X.X.X.X.X.X.X.X.X.X.X.X.X.X.X.X.X.X.X.X.X.X.X.X.X.X.X.X.X.X.X.X.",
"- - > > > > > > - - > > > > > > > - % N U X.X.X.X.X.X.X.X.X.X.X.X.X.X.X.X.X.X.X.X.X.X.X.X.X.X.X.X.X.X.X.X.X.X.X.X.X.X.X.X.X.X.X.",
"> > > > > > > > > > > > > > > > > - % N U X.X.X.X.X.X.X.X.X.X.X.X.X.X.X.X.X.X.X.X.X.X.X.X.X.X.X.X.X.X.X.X.X.X.X.X.X.X.X.X.X.X.X.",
"> > > > > > > > > > > > > > > > > - % N U X.X.X.X.X.X.X.X.X.X.X.X.X.X.X.X.X.X.X.X.X.X.X.X.X.X.X.X.X.X.X.X.X.X.X.X.X.X.X.X.X.X.X."
};
