/* XPM */
static const char *wall_ul[] = {
/* columns rows colors chars-per-pixel */
"64 64 128 2 ",
"   c #794D53",
".  c #794E52",
"X  c #794F52",
"o  c #784955",
"O  c #72485F",
"+  c #7C5556",
"@  c #7E5458",
"#  c #734960",
"$  c #734A60",
"%  c #744A60",
"&  c #744B60",
"*  c #754C60",
"=  c #7A5161",
"-  c #8D5B25",
";  c #8D5B26",
":  c #8D5C24",
">  c #8D5C25",
",  c #8D5D25",
"<  c #8C5C26",
"1  c #8D5D26",
"2  c #8D5C27",
"3  c #8D5D27",
"4  c #8E5C26",
"5  c #8E5D26",
"6  c #8F5F26",
"7  c #8E5E27",
"8  c #8F5E27",
"9  c #8E5F27",
"0  c #8D572B",
"q  c #8D562C",
"w  c #8E5E28",
"e  c #8E5F28",
"r  c #8B4634",
"t  c #8A4635",
"y  c #8A4735",
"u  c #84473F",
"i  c #855734",
"p  c #865634",
"a  c #865734",
"s  c #865735",
"d  c #875935",
"f  c #865339",
"g  c #9A7A39",
"h  c #9B7B39",
"j  c #9B7C38",
"k  c #A1753F",
"l  c #A2753F",
"z  c #906E43",
"x  c #956947",
"c  c #82645F",
"v  c #A17440",
"b  c #835A62",
"n  c #845B62",
"m  c #855C62",
"M  c #865C62",
"N  c #865D62",
"B  c #865C63",
"V  c #875E64",
"C  c #875F64",
"Z  c #885F63",
"A  c #856B64",
"S  c #866C64",
"D  c #876D64",
"F  c #8B636A",
"G  c #8B646A",
"H  c #8C656A",
"J  c #946B64",
"K  c #99716A",
"L  c #A27967",
"P  c #A49C5F",
"I  c #B4B85F",
"U  c #B5B95F",
"Y  c #B5BA5F",
"T  c #AE8568",
"R  c #AF8569",
"E  c #AF8668",
"W  c #AF8669",
"Q  c #B08769",
"!  c #B0866A",
"~  c #B0876A",
"^  c #B18869",
"/  c #B28969",
"(  c #B48A69",
")  c #B48B6A",
"_  c #B68D6B",
"`  c #B48D6E",
"'  c #BE956B",
"]  c #ADB26C",
"[  c #ADB36D",
"{  c #AEB36C",
"}  c #AEB46D",
"|  c #C2996B",
" . c #C39A6C",
".. c #C49B6C",
"X. c #C59C6C",
"o. c #C69D6C",
"O. c #C79E6D",
"+. c #C39B71",
"@. c #C29D7B",
"#. c #C9A173",
"$. c #C9A372",
"%. c #C9A273",
"&. c #CAA273",
"*. c #CAA473",
"=. c #CBA573",
"-. c #C0D470",
";. c #C1D670",
":. c #C1D671",
">. c #C2D770",
",. c #C1D772",
"<. c #C2D871",
"1. c #C2D971",
"2. c #C2D972",
"3. c #C3DA72",
"4. c #C29E80",
"5. c #C39F81",
"6. c #D6B283",
"7. c #D7B383",
"8. c #D8B383",
"9. c #DCB98A",
"0. c #DDBA8B",
"q. c #DEBB8B",
"w. c #DFBC8B",
"e. c #DEBB8C",
"r. c #DFBC8C",
"t. c #DFBD8D",
"y. c #E0BD8C",
"u. c #E0BE8D",
/* pixels */
"-.-.-.-.-.-.-.-.-.-.-.-.-.-.-.-.-.-.-.-.-.-.-.-.-.-.-.-.-.-.-.-.-.-.-.-.-.-.-.-.-.-.-.{ D # % * * * * * * * * * * * * * * * * * ",
"-.-.-.-.-.-.-.-.-.-.-.-.-.-.-.-.-.-.-.-.-.-.-.-.-.-.-.-.-.-.-.-.-.-.-.-.-.-.-.-.-.-.-.{ D # % * % % % % % % % % % % % % % % % % ",
"-.-.-.-.-.-.-.-.-.-.-.-.-.-.-.-.-.-.-.-.-.-.-.-.-.-.-.-.-.-.-.-.-.-.-.-.-.-.-.-.-.-.-.{ D # % * % # # # # # # # # # # # # # # # ",
"-.-.-.-.-.-.-.-.-.-.-.-.-.-.-.-.-.-.-.-.-.-.-.-.-.-.-.-.-.-.-.-.-.-.-.-.-.-.-.-.-.-.-.{ D # % = b Z Z Z Z Z Z Z Z Z Z Z Z Z Z Z ",
"-.-.-.-.-.-.-.-.-.-.-.-.-.-.-.-.-.-.-.-.-.-.-.-.-.-.-.-.-.-.-.-.-.-.-.-.-.-.-.-.-.-.<.} D O O b L ^ ^ Q Q Q Q Q Q Q Q Q Q Q Q Q ",
"-.-.-.-.-.-.-.-.-.-.-.-.-.-.-.-.-.-.-.-.-.-.-.-.-.-.-.-.-.-.-.-.-.-.-.-.-.-.-.-.-.-.<.} D O O Z ^ X.X.X.X.X.X.X.X.X.X.X.X.X.X.X.",
"-.-.-.-.-.-.-.-.-.-.-.-.-.-.-.-.-.-.-.-.-.-.-.-.-.-.-.-.-.-.-.-.-.-.-.-.-.-.-.-.-.-.<.} D O O Z ^ X.X...........................",
"-.-.-.-.-.-.-.-.-.-.-.-.-.-.-.-.-.-.-.-.-.-.-.-.-.-.-.-.-.-.-.-.-.-.-.-.-.-.-.-.-.-.<.} D O O Z Q X... . . . . . . . . . . . . .",
"-.-.-.-.-.-.-.-.-.-.-.-.-.-.-.-.-.-.-.-.-.-.-.-.-.-.-.-.-.-.-.-.-.-.-.-.-.-.-.-.-.-.-.{ D O O Z Q X... . . . . . . . . . . . . .",
"-.-.-.-.-.-.-.-.-.-.-.-.-.-.-.-.-.-.-.-.-.-.-.-.-.-.-.-.-.-.-.-.-.-.-.-.-.-.-.-.-.-.-.{ D O O Z Q X... . . . . . . ..... .|  . .",
"-.-.-.-.-.-.-.-.-.-.-.-.-.-.-.-.-.-.-.-.-.-.-.-.-.-.-.-.-.-.-.-.-.-.-.-.-.-.-.-.-.-.-.{ D O O Z Q X... . . . . . . ..... .| | | ",
"-.-.-.-.-.-.-.-.-.-.-.-.-.-.-.-.-.-.-.-.-.-.-.-.-.-.-.-.-.-.-.-.-.-.-.-.-.-.-.-.-.-.-.{ D O O Z Q X... . . . . . .' ) _ +.#.#.#.",
"-.-.-.-.-.-.-.-.-.-.-.-.-.-.-.-.-.-.-.-.-.-.-.-.-.-.-.-.-.-.-.-.-.-.-.-.-.-.-.-.-.-.<.} D O O Z Q X... . . . .....) J K @.8.7.7.",
"-.-.-.-.-.-.-.-.-.-.-.-.-.-.-.-.-.-.-.-.-.-.-.-.-.-.-.-.-.-.-.-.-.-.-.-.-.-.-.-.-.-.<.} D O O Z Q X... . . . ...X.R n F 5.r.q.q.",
"-.-.-.-.-.-.-.-.-.-.-.-.-.-.-.-.-.-.-.-.-.-.-.-.-.-.-.-.-.-.-.-.-.-.-.-.-.-.-.-.-.-.<.} D O O Z Q X... . . . ...X.R n G 5.w.q.q.",
"-.-.-.-.-.-.-.-.-.-.-.-.-.-.-.-.-.-.-.-.-.-.-.-.-.-.-.-.-.-.-.-.-.-.-.-.-.-.-.-.-.-.-.{ D O O Z Q X... . . . ...X.R B H 5.r.r.q.",
"-.-.-.-.-.-.-.-.-.-.-.-.-.-.-.-.-.-.-.-.-.-.-.-.-.-.-.-.-.-.-.-.-.-.-.-.-.-.-.-.-.-.-.{ D O O Z Q X... . . . ...X.R B H 5.y.y.r.",
"-.-.-.-.-.-.-.-.-.-.-.-.-.-.-.-.-.-.-.-.-.-.-.-.-.-.-.-.-.-.-.-.-.-.-.-.-.-.-.-.-.-.-.{ D O O Z Q X... . . . ...X.R B C ` $.$.$.",
"-.-.-.-.-.-.-.-.-.-.-.-.-.-.-.-.-.-.-.-.-.-.-.-.-.-.-.-.-.-.-.-.-.-.-.-.-.-.-.-.-.-.-.{ D O O Z Q X... . . . ...X.Q V @ x l v v ",
"-.-.-.-.-.-.-.-.-.-.-.-.-.-.-.-.-.-.-.-.-.-.-.-.-.-.-.-.-.-.-.-.-.-.-.-.-.-.-.-.-.-.-.{ D O O Z Q X... . . . ...X.Q V . p > > > ",
"-.-.-.-.-.-.-.-.-.-.-.-.-.-.-.-.-.-.-.-.-.-.-.-.-.-.-.-.-.-.-.-.-.-.-.-.-.-.-.-.-.-.<.} D O O Z Q X... . . . ...X.Q V . d > > > ",
"-.-.-.-.-.-.-.-.-.-.-.-.-.-.-.-.-.-.-.-.-.-.-.-.-.-.-.-.-.-.-.-.-.-.-.-.-.-.-.-.-.-.<.} D O O Z Q X... . . . ...X.Q V . d > w w ",
"-.-.-.-.-.-.-.-.-.-.-.-.-.-.-.-.-.-.-.-.-.-.-.-.-.-.-.-.-.-.-.-.-.-.-.-.-.-.-.-.-.-.<.} D O O Z Q X... . . . ...X.Q V . d > w w ",
"-.-.-.-.-.-.-.-.-.-.-.-.-.-.-.-.-.-.-.-.-.-.-.-.-.-.-.-.-.-.-.-.-.-.-.-.-.-.-.-.-.-.<.} D O O Z Q X... . . . ...X.Q V . d > > w ",
"-.-.-.-.-.-.-.-.-.-.-.-.-.-.-.-.-.-.-.-.-.-.-.-.-.-.-.-.-.-.-.-.-.-.-.-.-.-.-.-.-.-.-.{ D O O Z Q X... . . . ...X.Q V . d > w w ",
"-.-.-.-.-.-.-.-.-.-.-.-.-.-.-.-.-.-.-.-.-.-.-.-.-.-.-.-.-.-.-.-.-.-.-.-.-.-.-.-.-.-.-.{ D O O Z Q X... . . . ...X.Q V . d > > w ",
"-.-.-.-.-.-.-.-.-.-.-.-.-.-.-.-.-.-.-.-.-.-.-.-.-.-.-.-.-.-.-.-.-.-.-.-.-.-.-.-.-.-.-.{ D O O Z Q X... . . . ...X.Q V . d > > w ",
"-.-.-.-.-.-.-.-.-.-.-.-.-.-.-.-.-.-.-.-.-.-.-.-.-.-.-.-.-.-.-.-.-.-.-.-.-.-.-.-.-.-.-.{ D O O Z Q X... . . . ...X.Q V . d > > w ",
"-.-.-.-.-.-.-.-.-.-.-.-.-.-.-.-.-.-.-.-.-.-.-.-.-.-.-.-.-.-.-.-.-.-.-.-.-.-.-.-.-.-.<.} D O O Z Q X... . . . ...X.Q V . d > > w ",
"-.-.-.-.-.-.-.-.-.-.-.-.-.-.-.-.-.-.-.-.-.-.-.-.-.-.-.-.-.-.-.-.-.-.-.-.-.-.-.-.-.-.<.} D O O Z Q X... . . . ...X.Q V . f 0 q q ",
"-.-.-.-.-.-.-.-.-.-.-.-.-.-.-.-.-.-.-.-.-.-.-.-.-.-.-.-.-.-.-.-.-.-.-.-.-.-.-.-.-.-.<.} D O O Z Q X... . . . ...X.^ V o u t t t ",
"-.-.-.-.-.-.-.-.-.-.-.-.-.-.-.-.-.-.-.-.-.-.-.-.-.-.-.-.-.-.-.-.-.-.-.-.-.-.-.-.-.-.-.{ D O O Z Q X... . . . ...X.^ V o u t t t ",
"-.-.-.-.-.-.-.-.-.-.-.-.-.-.-.-.-.-.-.-.-.-.-.-.-.-.-.-.-.-.-.-.-.-.-.-.-.-.-.-.-.-.-.} D O # Z Q X... . . . ...X.Q V . f q q q ",
"-.-.-.-.-.-.-.-.-.-.-.-.-.-.-.-.-.-.-.-.-.-.-.-.-.-.-.-.-.-.-.-.-.-.-.-.-.-.-.-.-.-.-.{ D O # Z Q X... . . . ...X.Q V . d 6 6 w ",
"-.-.-.-.-.-.-.-.-.-.-.-.-.-.-.-.-.-.-.-.-.-.-.-.-.-.-.-.-.-.-.-.-.-.-.-.-.-.-.-.-.-.-.{ D O # Z Q X... . . . ...X.Q V . d > > w ",
"-.-.-.-.-.-.-.-.-.-.-.-.-.-.-.-.-.-.-.-.-.-.-.-.-.-.-.-.-.-.-.-.-.-.-.-.-.-.-.-.-.-.-.{ D O O Z Q X... . . . ...X.Q V . d > w w ",
"-.-.-.-.-.-.-.-.-.-.-.-.-.-.-.-.-.-.-.-.-.-.-.-.-.-.-.-.-.-.-.-.-.-.-.-.-.-.-.-.-.-.-.{ D O O Z Q X... . . . ...X.Q V . d > > w ",
"-.-.-.-.-.-.-.-.-.-.-.-.-.-.-.-.-.-.-.-.-.-.-.-.-.-.-.-.-.-.-.-.-.-.-.-.-.-.-.-.-.-.-.{ D O O Z Q X... . . . ...X.Q V . d > > w ",
"-.-.-.-.-.-.-.-.-.-.-.-.-.-.-.-.-.-.-.-.-.-.-.-.-.-.-.-.-.-.-.-.-.-.-.-.-.-.-.-.-.-.-.{ D O O Z Q X... . . . ...X.Q V . d > > w ",
"-.-.-.-.-.-.-.-.-.-.-.-.-.-.-.-.-.-.-.-.-.-.-.-.-.-.-.-.-.-.-.-.-.-.-.-.-.-.-.-.-.-.-.{ D O O Z Q X... . . . ...X.Q V . d > > w ",
"-.-.-.-.-.-.-.-.-.-.-.-.-.-.-.-.-.-.-.-.-.-.-.-.-.-.-.-.-.-.-.-.-.-.-.-.-.-.-.-.-.-.<.} D O O Z Q X... . . . ...X.Q C . d > > w ",
"-.-.-.-.-.-.-.-.-.-.-.-.-.-.-.-.-.-.-.-.-.-.-.-.-.-.-.-.-.-.-.-.-.-.-.-.-.-.-.-.-.-.<.} D O O Z Q X... . . . ...X.Q C . d > > w ",
"-.-.-.-.-.-.-.-.-.-.-.-.-.-.-.-.-.-.-.-.-.-.-.-.-.-.-.-.-.-.-.-.-.-.-.-.-.-.-.-.-.-.<.} D O O Z Q X... . . . ...X.Q C . d > > w ",
"-.-.-.-.-.-.-.-.-.-.-.-.-.-.-.-.-.-.-.-.-.-.-.-.-.-.-.-.-.-.-.-.-.-.-.-.-.-.-.-.-.-.<.} D O O Z Q X... . . . ...X.Q C   f 0 q q ",
"-.-.-.-.-.-.-.-.-.-.-.-.-.-.-.-.-.-.-.-.-.-.-.-.-.-.-.-.-.-.-.-.-.-.-.-.-.-.-.-.-.-.-.{ D O O Z Q X... . . . ...X.Q V o u t t t ",
"-.-.-.-.-.-.-.-.-.-.-.-.-.-.-.-.-.-.-.-.-.-.-.-.-.-.-.-.-.-.-.-.-.-.-.-.-.-.-.-.-.-.-.{ D O O Z Q X... . . . ...X.Q V o u t t t ",
"-.-.-.-.-.-.-.-.-.-.-.-.-.-.-.-.-.-.-.-.-.-.-.-.-.-.-.-.-.-.-.-.-.-.-.-.-.-.-.-.-.-.-.{ D O O Z Q X... . . . ...X.Q V . f q q q ",
"-.-.-.-.-.-.-.-.-.-.-.-.-.-.-.-.-.-.-.-.-.-.-.-.-.-.-.-.-.-.-.-.-.-.-.-.-.-.-.-.-.-.-.{ D O O Z Q X... . . . ...X.Q V . d 6 > w ",
"-.-.-.-.-.-.-.-.-.-.-.-.-.-.-.-.-.-.-.-.-.-.-.-.-.-.-.-.-.-.-.-.-.-.-.-.-.-.-.-.-.-.<.{ D O O Z Q X... . . . ...X.Q V . d > > w ",
"-.-.-.-.-.-.-.-.-.-.-.-.-.-.-.-.-.-.-.-.-.-.-.-.-.-.-.-.-.-.-.-.-.-.-.-.-.-.-.-.-.-.-.{ D O O Z Q X... . . . ...X.Q V . d > > w ",
"-.-.-.-.-.-.-.-.-.-.-.-.-.-.-.-.-.-.-.-.-.-.-.-.-.-.-.-.-.-.-.-.-.-.-.-.-.-.-.-.-.-.<.} D O O Z Q X... . . . ...X.Q V . d > > w ",
"-.-.-.-.-.-.-.-.-.-.-.-.-.-.-.-.-.-.-.-.-.-.-.-.-.-.-.-.-.-.-.-.-.-.-.-.-.-.-.-.-.-.<.} D O O Z Q X... . . . ...X.Q V . d > > w ",
"-.-.-.-.-.-.-.-.-.-.-.-.-.-.-.-.-.-.-.-.-.-.-.-.-.-.-.-.-.-.-.-.-.-.-.-.-.-.-.-.-.-.-.} D O O Z Q X... . . . ...X.Q V . d > > w ",
"-.-.-.-.-.-.-.-.-.-.-.-.-.-.-.-.-.-.-.-.-.-.-.-.-.-.-.-.-.-.-.-.-.-.-.-.-.-.-.-.-.-.-.{ D O O Z Q X... . . . ...X.Q V . d > > w ",
"-.-.-.-.-.-.-.-.-.-.-.-.-.-.-.-.-.-.-.-.-.-.-.-.-.-.-.-.-.-.-.-.-.-.-.-.-.-.-.-.-.-.-.{ D O O Z Q X... . . . ...X.Q C . d > > w ",
"-.-.-.-.-.-.-.-.-.-.-.-.-.-.-.-.-.-.-.-.-.-.-.-.-.-.-.-.-.-.-.-.-.-.-.-.-.-.-.-.-.-.-.{ D O O Z Q X... . . . ...X.Q C . d > > > ",
"-.-.-.-.-.-.-.-.-.-.-.-.-.-.-.-.-.-.-.-.-.-.-.-.-.-.-.-.-.-.-.-.-.-.-.-.-.-.-.-.-.-.-.{ D O O Z Q X... . . . ...X.Q V . p > > > ",
"-.-.-.-.-.-.-.-.-.-.-.-.-.-.-.-.-.-.-.-.-.-.-.-.-.-.-.-.-.-.-.-.-.-.-.-.-.-.-.-.-.-.-.{ D O O Z Q X... . . . ...X.Q V + z j j g ",
"-.-.-.-.-.-.-.-.-.-.-.-.-.-.-.-.-.-.-.-.-.-.-.-.-.-.-.-.-.-.-.-.-.-.-.-.-.-.-.-.-.-.-.{ D O O Z Q X... . . . ...X.R B c P I I I ",
"-.-.-.-.-.-.-.-.-.-.-.-.-.-.-.-.-.-.-.-.-.-.-.-.-.-.-.-.-.-.-.-.-.-.-.-.-.-.-.-.-.-.-.{ D O O Z Q X... . . . ...X.R B D } <.<.-.",
"-.-.-.-.-.-.-.-.-.-.-.-.-.-.-.-.-.-.-.-.-.-.-.-.-.-.-.-.-.-.-.-.-.-.-.-.-.-.-.-.-.-.<.} D O O Z Q X... . . . ...X.R B A { <.<.-.",
"-.-.-.-.-.-.-.-.-.-.-.-.-.-.-.-.-.-.-.-.-.-.-.-.-.-.-.-.-.-.-.-.-.-.-.-.-.-.-.-.-.-.<.} D O O Z Q X... . . . ...X.R B A { -.-.-.",
"-.-.-.-.-.-.-.-.-.-.-.-.-.-.-.-.-.-.-.-.-.-.-.-.-.-.-.-.-.-.-.-.-.-.-.-.-.-.-.-.-.-.<.} D O O Z Q X... . . . ...X.R B A { -.-.-.",
"-.-.-.-.-.-.-.-.-.-.-.-.-.-.-.-.-.-.-.-.-.-.-.-.-.-.-.-.-.-.-.-.-.-.-.-.-.-.-.-.-.-.<.} D O O Z Q X... . . . ...X.R B A { -.-.-."
};
