/* XPM */
static char *wall_dl[] = {
/* columns rows colors chars-per-pixel */
"32 32 6 1 ",
"  c #754C60",
". c #8E5E28",
"X c #894039",
"o c #C39A6C",
"O c #C0D470",
"+ c #DCB98A",
/* pixels */
"OOOOOOOOOOOOOOOOOOOOOO  ooooo OO",
"OOOOOOOOOOOOOOOOOOOOOO  ooooo OO",
"OOOOOOOOOOOOOOOOOOOOOO  ooooo OO",
"OOOOOOOOOOOOOOOOOOOOOO  oooooooo",
"OOOOOOOOOOOOOOOOOOOOOO  oooooooo",
"OOOOOOOOOOOOOOOOOOOOOO  oooooooo",
"OOOOOOOOOOOOOOOOOOOOOO  oooooooo",
"OOOOOOOOOOOOOOOOOOOOOO  oooooooo",
"OOOOOOOOOOOOOOOOOOOOOO  ++++++++",
"OOOOOOOOOOOOOOOOOOOOOO  ++++++++",
"OOOOOOOOOOOOOOOOOOOOOO  ........",
"OOOOOOOOOOOOOOOOOOOOOO  ........",
"OOOOOOOOOOOOOOOOOOOOOO  ........",
"OOOOOOOOOOOOOOOOOOOOOO  ........",
"OOOOOOOOOOOOOOOOOOOOOO  ........",
"OOOOOOOOOOOOOOOOOOOOOO  ........",
"OOOOOOOOOOOOOOOOOOOOOO  XXXXXXXX",
"OOOOOOOOOOOOOOOOOOOOOO  ........",
"OOOOOOOOOOOOOOOOOOOOOO  ........",
"OOOOOOOOOOOOOOOOOOOOOO  ........",
"OOOOOOOOOOOOOOOOOOOOOO  ........",
"OOOOOOOOOOOOOOOOOOOOOO  ........",
"OOOOOOOOOOOOOOOOOOOOOO  ........",
"OOOOOOOOOOOOOOOOOOOOOO  XXXXXXXX",
"OOOOOOOOOOOOOOOOOOOOOO  ........",
"OOOOOOOOOOOOOOOOOOOOOO  ........",
"OOOOOOOOOOOOOOOOOOOOOO  ........",
"OOOOOOOOOOOOOOOOOOOOOO  ........",
"OOOOOOOOOOOOOOOOOOOOOO  ........",
"OOOOOOOOOOOOOOOOOOOOOO  ........",
"OOOOOOOOOOOOOOOOOOOOOO          ",
"OOOOOOOOOOOOOOOOOOOOOO          "
};
