/* XPM */
static char *wall_cr[] = {
/* columns rows colors chars-per-pixel */
"32 32 3 1 ",
"  c #754C60",
". c #C39A6C",
"X c #C0D470",
/* pixels */
"XXXXXXXXXXXXXXXXXXXXXXXX .....  ",
"XXXXXXXXXXXXXXXXXXXXXXXX .....  ",
"XXXXXXXXXXXXXXXXXXXXXXXX .....  ",
"XXXXXXXXXXXXXXXXXXXXXXXX .....  ",
"XXXXXXXXXXXXXXXXXXXXXXXX .....  ",
"XXXXXXXXXXXXXXXXXXXXXXXX .....  ",
"XXXXXXXXXXXXXXXXXXXXXXXX .....  ",
"XXXXXXXXXXXXXXXXXXXXXXXX .....  ",
"XXXXXXXXXXXXXXXXXXXXXXXX .....  ",
"XXXXXXXXXXXXXXXXXXXXXXXX .....  ",
"XXXXXXXXXXXXXXXXXXXXXXXX .....  ",
"XXXXXXXXXXXXXXXXXXXXXXXX .....  ",
"XXXXXXXXXXXXXXXXXXXXXXXX .....  ",
"XXXXXXXXXXXXXXXXXXXXXXXX .....  ",
"XXXXXXXXXXXXXXXXXXXXXXXX .....  ",
"XXXXXXXXXXXXXXXXXXXXXXXX .....  ",
"XXXXXXXXXXXXXXXXXXXXXXXX .....  ",
"XXXXXXXXXXXXXXXXXXXXXXXX .....  ",
"XXXXXXXXXXXXXXXXXXXXXXXX .....  ",
"XXXXXXXXXXXXXXXXXXXXXXXX .....  ",
"XXXXXXXXXXXXXXXXXXXXXXXX .....  ",
"XXXXXXXXXXXXXXXXXXXXXXXX .....  ",
"XXXXXXXXXXXXXXXXXXXXXXXX .....  ",
"XXXXXXXXXXXXXXXXXXXXXXXX .....  ",
"XXXXXXXXXXXXXXXXXXXXXXXX .....  ",
"XXXXXXXXXXXXXXXXXXXXXXXX .....  ",
"XXXXXXXXXXXXXXXXXXXXXXXX .....  ",
"XXXXXXXXXXXXXXXXXXXXXXXX .....  ",
"XXXXXXXXXXXXXXXXXXXXXXXX .....  ",
"XXXXXXXXXXXXXXXXXXXXXXXX .....  ",
"XXXXXXXXXXXXXXXXXXXXXXXX .....  ",
"XXXXXXXXXXXXXXXXXXXXXXXX .....  "
};
