/* XPM */
static char *wall_dl[] = {
/* columns rows colors chars-per-pixel */
"32 32 6 1 ",
"  c #754C60",
". c #8E5E28",
"X c #894039",
"o c #C39A6C",
"O c #C0D470",
"+ c #DCB98A",
/* pixels */
"  ooooo OOOOOOOOOOOOOOOOOOOOOOOO",
"  ooooo OOOOOOOOOOOOOOOOOOOOOOOO",
"  oooooXOOOOOOOOOOOOOOOOOOOOOOOO",
"  oooooooooooooooooooooooooooooo",
"  oooooooooooooooooooooooooooooo",
"  oooooooooooooooooooooooooooooo",
"  oooooooooooooooooooooooooooooo",
"  oooooooooooooooooooooooooooooo",
"  ++++++++++++++++++++++++++++++",
"  ++++++++++++++++++++++++++++++",
"  ..............................",
"  ..............................",
"  ..............................",
"  ..............................",
"  ..............................",
"  ..............................",
"  XXXXXXXXXXXXXXXXXXXXXXXXXXXXXX",
"  ..............................",
"  ..............................",
"  ..............................",
"  ..............................",
"  ..............................",
"  ..............................",
"  XXXXXXXXXXXXXXXXXXXXXXXXXXXXXX",
"  ..............................",
"  ..............................",
"  ..............................",
"  ..............................",
"  ..............................",
"  ..............................",
"                                ",
"                                "
};
